<svg width="74" height="66" viewBox="0 0 74 66" fill="none" xmlns="http://www.w3.org/2000/svg">
    <path d="M5.58464 56.5654L8.84234 62.1923C9.51924 63.3769 10.4923 64.3077 11.6346 64.9846L23.2693 44.8462H0C0 46.1577 0.338465 47.4693 1.01539 48.6538L5.58464 56.5654Z" fill="#0066DA"/>
    <path d="M36.9346 21.1539L25.3 1.01538C24.1577 1.6923 23.1846 2.62303 22.5077 3.80771L1.01539 41.0385C0.338465 42.2231 0 43.5347 0 44.8462H23.2693L36.9346 21.1539Z" fill="#00AC47"/>
    <path d="M36.935 21.1539L48.5695 1.01539C47.4272 0.338456 46.1157 0 44.7619 0H29.108C27.7542 0 26.4426 0.380765 25.3003 1.01539L36.935 21.1539Z" fill="#00832D"/>
    <path d="M50.5999 44.8462H23.2691L11.6345 64.9846C12.7769 65.6616 14.0884 66 15.4423 66H58.4268C59.7807 66 61.0922 65.6192 62.2346 64.9846L50.5999 44.8462Z" fill="#2684FC"/>
    <path d="M62.2349 64.9846C63.3772 64.3077 64.3503 63.3769 65.0272 62.1923L66.381 59.8654L72.8541 48.6538C73.531 47.4693 73.8695 46.1577 73.8695 44.8462H50.6426L62.2349 64.9846Z" fill="#EA4335"/>
    <path d="M62.1079 22.4231L51.3618 3.80771C50.6849 2.62303 49.7117 1.6923 48.5694 1.01538L36.9348 21.1539L50.6002 44.8462H73.8272C73.8272 43.5347 73.4887 42.2231 72.8118 41.0385L62.1079 22.4231Z" fill="#FFBA00"/>
</svg>
