<svg width="124" height="104" viewBox="0 0 124 104" fill="none" xmlns="http://www.w3.org/2000/svg">
<path fill-rule="evenodd" clip-rule="evenodd" d="M42.3259 73.954V89.8817L28.5322 97.8455L14.7385 89.8817V73.954L28.5322 65.9902L42.3259 73.954ZM41.0099 75.4275V89.1218L29.1902 95.9459V81.9186L41.0099 75.4275ZM27.8742 81.9186V95.9459L16.0545 89.1218V75.4275L27.8742 81.9186ZM16.7539 74.3101L28.5322 67.5099L40.3105 74.3101L28.5322 80.7785L16.7539 74.3101Z" fill="#BFA1FF"/>
<path fill-rule="evenodd" clip-rule="evenodd" d="M36.2027 86.3386L46.4355 92.4295L47.1086 91.2986L36.8758 85.2077L36.2027 86.3386Z" fill="#BFA1FF"/>
<path d="M43.3597 90.6064L38.236 87.5679L36.9825 89.6816L42.1063 92.7201L43.3597 90.6064Z" fill="white"/>
<path fill-rule="evenodd" clip-rule="evenodd" d="M18.2158 14.1303V30.1277L32.07 38.1264L45.9242 30.1277V14.1303L32.07 6.13159L18.2158 14.1303ZM19.5319 15.6038V29.3679L31.4119 36.2268V22.128L19.5319 15.6038ZM32.728 22.128V36.2268L44.6081 29.3679V15.6038L32.728 22.128ZM43.9087 14.4864L32.07 7.65126L20.2312 14.4864L32.07 20.9879L43.9087 14.4864Z" fill="#BFA1FF"/>
<path fill-rule="evenodd" clip-rule="evenodd" d="M24.366 26.5692L15.0746 31.6988L14.4385 30.5466L23.73 25.417L24.366 26.5692Z" fill="#BFA1FF"/>
<path d="M17.0056 30.6333L22.2387 27.7329L23.4654 29.9461L18.2323 32.8466L17.0056 30.6333Z" fill="white"/>
<path fill-rule="evenodd" clip-rule="evenodd" d="M81.8794 73.954V89.8817L95.6731 97.8455L109.467 89.8817V73.954L95.6731 65.9902L81.8794 73.954ZM83.1955 75.4275V89.1218L95.0151 95.9459V81.9186L83.1955 75.4275ZM96.3312 81.9186V95.9459L108.151 89.1218V75.4275L96.3312 81.9186ZM107.451 74.3101L95.6731 67.5099L83.8948 74.3101L95.6731 80.7785L107.451 74.3101Z" fill="#BFA1FF"/>
<path fill-rule="evenodd" clip-rule="evenodd" d="M88.0029 86.3386L77.7701 92.4295L77.0969 91.2986L87.3298 85.2077L88.0029 86.3386Z" fill="#BFA1FF"/>
<path d="M80.8458 90.6064L85.9696 87.5679L87.223 89.6816L82.0993 92.7201L80.8458 90.6064Z" fill="white"/>
<path fill-rule="evenodd" clip-rule="evenodd" d="M106.327 13.6325V29.6299L92.4729 37.6286L78.6187 29.6299V13.6325L92.4729 5.63379L106.327 13.6325ZM105.011 15.106V28.8701L93.1309 35.729V21.6302L105.011 15.106ZM91.8148 21.6302V35.729L79.9348 28.8701V15.106L91.8148 21.6302ZM80.6341 13.9886L92.4729 7.15346L104.312 13.9886L92.4729 20.4901L80.6341 13.9886Z" fill="#BFA1FF"/>
<path fill-rule="evenodd" clip-rule="evenodd" d="M100.177 26.0714L109.468 31.201L110.104 30.0488L100.813 24.9192L100.177 26.0714Z" fill="#BFA1FF"/>
<path d="M107.537 30.1355L102.304 27.2351L101.077 29.4483L106.311 32.3488L107.537 30.1355Z" fill="white"/>
<path fill-rule="evenodd" clip-rule="evenodd" d="M0.967041 44.7815H21.1909V65.0054H0.967041V44.7815ZM2.28312 46.0976V63.6893H19.8748V46.0976H2.28312Z" fill="#BFA1FF"/>
<path fill-rule="evenodd" clip-rule="evenodd" d="M3.57691 34.3328H18.3693L21.1704 45.2767L19.8954 45.603L17.3476 35.6488H4.61793L2.26546 45.5914L0.984741 45.2883L3.57691 34.3328Z" fill="#BFA1FF"/>
<path d="M14.7201 66.3281L14.8347 60.3723L8.62669 60.2528L8.51205 66.2086L14.7201 66.3281Z" fill="white"/>
<path fill-rule="evenodd" clip-rule="evenodd" d="M11.3274 57.9456L11.0789 69.8514L12.3947 69.8789L12.6432 57.9731L11.3274 57.9456Z" fill="#BFA1FF"/>
<path fill-rule="evenodd" clip-rule="evenodd" d="M102.809 45.2793H123.033V65.5032H102.809V45.2793ZM104.125 46.5954V64.1871H121.717V46.5954H104.125Z" fill="#BFA1FF"/>
<path fill-rule="evenodd" clip-rule="evenodd" d="M105.419 34.8301H120.211L123.013 45.774L121.738 46.1003L119.19 36.1462H106.46L104.108 46.0887L102.827 45.7856L105.419 34.8301Z" fill="#BFA1FF"/>
<path d="M116.562 66.8254L116.677 60.8696L110.469 60.7501L110.354 66.706L116.562 66.8254Z" fill="white"/>
<path fill-rule="evenodd" clip-rule="evenodd" d="M113.169 58.4434L112.921 70.3492L114.237 70.3767L114.485 58.4709L113.169 58.4434Z" fill="#BFA1FF"/>
<path fill-rule="evenodd" clip-rule="evenodd" d="M52.2333 83.5923H72.4571V103.816H52.2333V83.5923ZM53.5494 84.9084V102.5H71.1411V84.9084H53.5494Z" fill="#BFA1FF"/>
<path fill-rule="evenodd" clip-rule="evenodd" d="M54.8434 73.1433H69.6357L72.4369 84.0872L71.1619 84.4136L68.6141 74.4594H55.8844L53.5319 84.4019L52.2512 84.0989L54.8434 73.1433Z" fill="#BFA1FF"/>
<path fill-rule="evenodd" clip-rule="evenodd" d="M52.2332 10.449H72.457V30.6728H52.2332V10.449ZM53.5492 11.765V29.3568H71.1409V11.765H53.5492Z" fill="#BFA1FF"/>
<path fill-rule="evenodd" clip-rule="evenodd" d="M54.843 0H69.6354L72.4365 10.9439L71.1615 11.2702L68.6137 1.31608H55.884L53.5316 11.2586L52.2509 10.9556L54.843 0Z" fill="#BFA1FF"/>
<path fill-rule="evenodd" clip-rule="evenodd" d="M52.8913 17.5756H45.9253V16.2595H52.8913V17.5756Z" fill="#BFA1FF"/>
<path fill-rule="evenodd" clip-rule="evenodd" d="M78.7652 17.5756H71.7992V16.2595H78.7652V17.5756Z" fill="#BFA1FF"/>
</svg>
