<svg width="162" height="108" viewBox="0 0 162 108" fill="none" xmlns="http://www.w3.org/2000/svg">
<path fill-rule="evenodd" clip-rule="evenodd" d="M121.012 11.6402V34.9206L141.173 46.5608L161.335 34.9206V11.6402L141.173 0L121.012 11.6402ZM122.391 13.1839V34.1246L140.484 44.5707V23.1203L122.391 13.1839ZM141.863 23.1203V44.5707L159.956 34.1246V13.1839L141.863 23.1203ZM159.223 12.0133L141.173 1.59212L123.123 12.0133L141.173 21.9258L159.223 12.0133Z" fill="#BFA1FF"/>
<path fill-rule="evenodd" clip-rule="evenodd" d="M129.962 29.7418L115.005 38.6445L114.3 37.4597L129.257 28.557L129.962 29.7418Z" fill="#BFA1FF"/>
<path d="M119.501 35.9797L126.99 31.5385L128.822 34.628L121.333 39.0692L119.501 35.9797Z" fill="white"/>
<path fill-rule="evenodd" clip-rule="evenodd" d="M5.92627 72.1084V95.4909L26.176 107.182L46.4258 95.4909V72.1084L26.176 60.4172L5.92627 72.1084ZM7.31113 73.6589V94.6913L25.4836 105.183V83.6388L7.31113 73.6589ZM26.8685 83.6388V105.183L45.041 94.6913V73.6589L26.8685 83.6388ZM44.3051 72.4831L26.176 62.0163L8.04701 72.4831L26.176 82.4391L44.3051 72.4831Z" fill="#BFA1FF"/>
<path fill-rule="evenodd" clip-rule="evenodd" d="M14.9156 90.2894L1.33485 97.7871L0.665527 96.5747L14.2463 89.077L14.9156 90.2894Z" fill="#BFA1FF"/>
<path d="M4.15747 96.23L11.8063 91.9906L13.5993 95.2256L5.95045 99.465L4.15747 96.23Z" fill="white"/>
<path fill-rule="evenodd" clip-rule="evenodd" d="M58.9675 40.3095V68.1223L83.0541 82.0287L107.141 68.1223V40.3095L83.0541 26.4031L58.9675 40.3095ZM60.6148 42.1538V67.1713L82.2305 79.6511V54.0246L60.6148 42.1538ZM83.8778 54.0246V79.6511L105.493 67.1713V42.1538L83.8778 54.0246ZM104.618 40.7552L83.0541 28.3052L61.4901 40.7552L83.0541 52.5976L104.618 40.7552Z" fill="#BFA1FF"/>
<path fill-rule="evenodd" clip-rule="evenodd" d="M69.6603 61.9353L51.7918 72.5712L50.9492 71.1558L68.8178 60.5198L69.6603 61.9353Z" fill="#BFA1FF"/>
<path d="M57.1628 69.3877L66.1099 64.0818L68.2987 67.7727L59.3516 73.0786L57.1628 69.3877Z" fill="white"/>
<path fill-rule="evenodd" clip-rule="evenodd" d="M116.522 54.2179L115.795 54.1954C115.806 53.8508 115.811 53.5048 115.811 53.1575C115.811 52.8102 115.806 52.4643 115.795 52.1196L116.522 52.0971C116.533 52.4493 116.538 52.8028 116.538 53.1575C116.538 53.5123 116.533 53.8658 116.522 54.2179ZM116.449 50.6883L115.724 50.7409C115.673 50.0483 115.602 49.3618 115.51 48.6819L116.23 48.584C116.325 49.279 116.398 49.9806 116.449 50.6883ZM116.011 47.1903L115.295 47.3183C115.173 46.6358 115.03 45.9607 114.867 45.2936L115.573 45.1206C115.74 45.8026 115.886 46.4927 116.011 47.1903ZM115.209 43.7575L114.51 43.9601C114.318 43.2951 114.104 42.6389 113.871 41.992L114.556 41.7456C114.794 42.4069 115.012 43.0777 115.209 43.7575ZM114.05 40.4283L113.376 40.7033C113.115 40.063 112.834 39.4327 112.534 38.8132L113.188 38.4962C113.495 39.1294 113.782 39.7737 114.05 40.4283ZM112.547 37.2395L111.906 37.5837C111.579 36.9746 111.233 36.377 110.869 35.7916L111.487 35.4078C111.859 36.0061 112.212 36.6169 112.547 37.2395ZM110.717 34.2254L110.116 34.6348C109.727 34.0636 109.321 33.5053 108.898 32.9605L109.472 32.5144C109.905 33.0711 110.32 33.6417 110.717 34.2254ZM108.584 31.4186L108.028 31.8883C107.582 31.361 107.12 30.848 106.642 30.3499L107.167 29.8465C107.655 30.3555 108.128 30.8798 108.584 31.4186ZM106.17 28.8489L105.666 29.3738C105.168 28.896 104.655 28.4338 104.128 27.9878L104.598 27.4325C105.136 27.8883 105.661 28.3607 106.17 28.8489ZM103.502 26.5441L103.056 27.1184C102.511 26.6953 101.953 26.2889 101.381 25.9L101.791 25.2988C102.375 25.6963 102.945 26.1117 103.502 26.5441ZM100.608 24.5294L100.225 25.1472C99.6392 24.7835 99.0416 24.4376 98.4325 24.1103L98.7767 23.4697C99.3993 23.8042 100.01 24.1577 100.608 24.5294ZM97.5201 22.8281L97.2031 23.4827C96.5835 23.1827 95.9532 22.9015 95.3129 22.6399L95.5879 21.9666C96.2425 22.234 96.8868 22.5215 97.5201 22.8281ZM94.2706 21.4606L94.0242 22.1449C93.3773 21.9119 92.7211 21.6987 92.0561 21.5058L92.2587 20.8073C92.9385 21.0045 93.6093 21.2225 94.2706 21.4606ZM90.8956 20.4429L90.7226 21.1493C90.0555 20.986 89.3804 20.843 88.6979 20.7209L88.8259 20.005C89.5235 20.1297 90.2136 20.2759 90.8956 20.4429ZM87.4322 19.7859L87.3343 20.5066C86.6544 20.4143 85.9678 20.3427 85.2753 20.2925L85.3279 19.5672C86.0356 19.6184 86.7372 19.6916 87.4322 19.7859ZM83.919 19.4944L83.8966 20.2213C83.5519 20.2107 83.206 20.2053 82.8587 20.2053C82.5114 20.2053 82.1654 20.2107 81.8208 20.2213L81.7983 19.4944C82.1504 19.4835 82.5039 19.478 82.8587 19.478C83.2134 19.478 83.5669 19.4835 83.919 19.4944ZM80.3895 19.5672L80.4421 20.2925C79.7495 20.3427 79.063 20.4143 78.383 20.5066L78.2852 19.7859C78.9801 19.6916 79.6818 19.6184 80.3895 19.5672ZM76.8915 20.005L77.0195 20.721C76.337 20.843 75.6619 20.986 74.9948 21.1493L74.8218 20.4429C75.5038 20.2759 76.1939 20.1298 76.8915 20.005ZM73.4587 20.8073L73.6613 21.5058C72.9963 21.6987 72.34 21.9119 71.6932 22.1449L71.4468 21.4606C72.108 21.2225 72.7789 21.0045 73.4587 20.8073ZM70.1295 21.9666L70.4045 22.6399C69.7641 22.9015 69.1338 23.1827 68.5143 23.4827L68.1973 22.8281C68.8306 22.5215 69.4749 22.234 70.1295 21.9666ZM66.9407 23.4697L67.2849 24.1103C66.6758 24.4376 66.0782 24.7835 65.4928 25.1472L65.109 24.5294C65.7073 24.1577 66.3181 23.8042 66.9407 23.4697ZM63.9266 25.2988L64.3359 25.9C63.7648 26.2889 63.2064 26.6953 62.6617 27.1184L62.2156 26.5441C62.7722 26.1117 63.3429 25.6963 63.9266 25.2988ZM61.1197 27.4325L61.5894 27.9878C61.0622 28.4338 60.5492 28.896 60.0511 29.3738L59.5477 28.8489C60.0567 28.3607 60.5809 27.8883 61.1197 27.4325ZM58.5501 29.8465L59.075 30.3499C58.5972 30.848 58.135 31.361 57.689 31.8883L57.1337 31.4186C57.5895 30.8798 58.0619 30.3555 58.5501 29.8465ZM56.2452 32.5144L56.8196 32.9605C56.3965 33.5053 55.9901 34.0636 55.6012 34.6348L55 34.2254C55.3975 33.6417 55.8128 33.0711 56.2452 32.5144ZM54.2306 35.4078L54.8484 35.7916C54.4846 36.377 54.1388 36.9746 53.8115 37.5837L53.1709 37.2395C53.5054 36.6169 53.8589 36.0061 54.2306 35.4078ZM52.5293 38.4962C52.2226 39.1294 51.9352 39.7737 51.6678 40.4283L52.341 40.7033C52.6026 40.063 52.8838 39.4327 53.1839 38.8132L52.5293 38.4962ZM51.1618 41.7456L51.846 41.992C51.6131 42.6389 51.3998 43.2951 51.207 43.9601L50.5085 43.7575C50.7056 43.0777 50.9237 42.4069 51.1618 41.7456ZM50.1441 45.1206L50.8505 45.2936C50.6872 45.9607 50.5441 46.6359 50.4221 47.3183L49.7062 47.1903C49.8309 46.4927 49.9771 45.8026 50.1441 45.1206ZM49.4871 48.584L50.2078 48.6819C50.1155 49.3618 50.0439 50.0484 49.9937 50.7409L49.2683 50.6884C49.3196 49.9806 49.3928 49.279 49.4871 48.584ZM49.1956 52.0972C49.1847 52.4493 49.1792 52.8028 49.1792 53.1575C49.1792 53.5123 49.1847 53.8658 49.1956 54.2179L49.9225 54.1954C49.9118 53.8508 49.9065 53.5048 49.9065 53.1575C49.9065 52.8103 49.9118 52.4643 49.9225 52.1196L49.1956 52.0972ZM49.2683 55.6267L49.9937 55.5741C50.0439 56.2667 50.1155 56.9533 50.2078 57.6332L49.4871 57.731C49.3928 57.0361 49.3196 56.3344 49.2683 55.6267ZM49.7062 59.1248L50.4221 58.9967C50.5441 59.6792 50.6872 60.3543 50.8505 61.0215L50.1441 61.1944C49.9771 60.5124 49.8309 59.8223 49.7062 59.1248ZM50.5085 62.5576L51.207 62.3549C51.3998 63.0199 51.6131 63.6762 51.846 64.3231L51.1618 64.5695C50.9237 63.9082 50.7056 63.2373 50.5085 62.5576ZM51.6678 65.8867L52.341 65.6117C52.6026 66.2521 52.8838 66.8824 53.1839 67.5019L52.5293 67.8189C52.2226 67.1856 51.9352 66.5413 51.6678 65.8867ZM53.1709 69.0756L53.8115 68.7313C54.1388 69.3404 54.4846 69.938 54.8484 70.5234L54.2306 70.9072C53.8589 70.3089 53.5054 69.6981 53.1709 69.0756ZM55 72.0896L55.6012 71.6803C55.9901 72.2514 56.3965 72.8098 56.8196 73.3545L56.2452 73.8006C55.8128 73.244 55.3975 72.6733 55 72.0896ZM57.1337 74.8965L57.689 74.4268C58.135 74.954 58.5972 75.467 59.075 75.9651L58.5501 76.4685C58.0619 75.9596 57.5895 75.4353 57.1337 74.8965ZM59.5477 77.4661L60.0511 76.9413C60.5492 77.419 61.0622 77.8813 61.5894 78.3272L61.1197 78.8825C60.5809 78.4267 60.0567 77.9543 59.5477 77.4661ZM62.2156 79.771L62.6617 79.1966C63.2064 79.6197 63.7648 80.0261 64.3359 80.4151L63.9266 81.0162C63.3429 80.6187 62.7722 80.2034 62.2156 79.771ZM65.109 81.7856L65.4928 81.1678C66.0782 81.5316 66.6758 81.8774 67.2849 82.2047L66.9407 82.8453C66.3181 82.5108 65.7073 82.1573 65.109 81.7856ZM68.1973 83.4869L68.5143 82.8324C69.1338 83.1324 69.7641 83.4136 70.4045 83.6752L70.1295 84.3484C69.4749 84.081 68.8306 83.7936 68.1973 83.4869ZM71.4468 84.8544L71.6932 84.1702C72.34 84.4031 72.9963 84.6164 73.6613 84.8092L73.4587 85.5077C72.7789 85.3106 72.108 85.0925 71.4468 84.8544ZM74.8218 85.8721L74.9948 85.1657C75.6619 85.329 76.337 85.4721 77.0195 85.5941L76.8915 86.31C76.1939 86.1853 75.5038 86.0391 74.8218 85.8721ZM78.2852 86.5291L78.383 85.8084C79.063 85.9007 79.7495 85.9723 80.4421 86.0225L80.3895 86.7479C79.6818 86.6966 78.9801 86.6234 78.2852 86.5291ZM81.7983 86.8206L81.8208 86.0937C82.1654 86.1044 82.5114 86.1097 82.8587 86.1097C83.206 86.1097 83.5519 86.1044 83.8966 86.0937L83.9191 86.8206C83.5669 86.8315 83.2135 86.837 82.8587 86.837C82.5039 86.837 82.1505 86.8315 81.7983 86.8206ZM85.3279 86.7479L85.2753 86.0225C85.9679 85.9723 86.6544 85.9007 87.3343 85.8084L87.4322 86.5291C86.7373 86.6234 86.0356 86.6966 85.3279 86.7479ZM88.8259 86.31L88.6979 85.5941C89.3804 85.4721 90.0555 85.329 90.7226 85.1657L90.8956 85.8721C90.2136 86.0391 89.5235 86.1853 88.8259 86.31ZM92.2587 85.5077L92.0561 84.8092C92.7211 84.6164 93.3773 84.4031 94.0242 84.1702L94.2706 84.8544C93.6093 85.0925 92.9385 85.3106 92.2587 85.5077ZM95.5879 84.3484L95.3129 83.6752C95.9532 83.4136 96.5835 83.1324 97.2031 82.8324L97.5201 83.4869C96.8868 83.7936 96.2425 84.081 95.5879 84.3484ZM98.7767 82.8453L98.4325 82.2047C99.0416 81.8774 99.6392 81.5316 100.225 81.1678L100.608 81.7856C100.01 82.1573 99.3993 82.5108 98.7767 82.8453ZM101.791 81.0162L101.381 80.415C101.953 80.0261 102.511 79.6197 103.056 79.1966L103.502 79.771C102.945 80.2034 102.375 80.6187 101.791 81.0162ZM104.598 78.8825L104.128 78.3272C104.655 77.8813 105.168 77.419 105.666 76.9413L106.17 77.4661C105.661 77.9543 105.136 78.4267 104.598 78.8825ZM107.167 76.4685L106.642 75.9651C107.12 75.467 107.582 74.954 108.028 74.4268L108.584 74.8965C108.128 75.4353 107.655 75.9596 107.167 76.4685ZM109.472 73.8006L108.898 73.3545C109.321 72.8098 109.727 72.2514 110.116 71.6803L110.717 72.0896C110.32 72.6734 109.905 73.244 109.472 73.8006ZM111.487 70.9072L110.869 70.5234C111.233 69.938 111.579 69.3404 111.906 68.7313L112.547 69.0756C112.212 69.6981 111.859 70.3089 111.487 70.9072ZM113.188 67.8189L112.534 67.5019C112.834 66.8824 113.115 66.2521 113.376 65.6117L114.05 65.8867C113.782 66.5413 113.495 67.1856 113.188 67.8189ZM114.556 64.5694L113.871 64.3231C114.104 63.6762 114.318 63.0199 114.51 62.3549L115.209 62.5575C115.012 63.2373 114.794 63.9082 114.556 64.5694ZM115.573 61.1944L114.867 61.0214C115.03 60.3543 115.173 59.6792 115.295 58.9967L116.011 59.1247C115.886 59.8223 115.74 60.5124 115.573 61.1944ZM116.23 57.731L115.51 57.6332C115.602 56.9532 115.673 56.2667 115.724 55.5741L116.449 55.6267C116.398 56.3344 116.325 57.0361 116.23 57.731Z" fill="#BFA1FF"/>
<path fill-rule="evenodd" clip-rule="evenodd" d="M119.146 53.8353L118.418 53.8207C118.423 53.578 118.426 53.3348 118.426 53.0909C118.426 52.847 118.423 52.6038 118.418 52.3611L119.146 52.3465C119.15 52.594 119.153 52.8422 119.153 53.0909C119.153 53.3396 119.15 53.5878 119.146 53.8353ZM118.884 48.6482L118.162 48.7362C118.104 48.2535 118.035 47.7739 117.957 47.2974L118.675 47.1801C118.755 47.6663 118.824 48.1557 118.884 48.6482ZM117.89 43.5563L117.188 43.7465C117.061 43.2778 116.925 42.8129 116.779 42.352L117.473 42.1331C117.621 42.6035 117.761 43.0779 117.89 43.5563ZM116.177 38.659L115.509 38.9479C115.316 38.5026 115.115 38.0619 114.905 37.6262L115.56 37.3102C115.774 37.7548 115.98 38.2045 116.177 38.659ZM113.78 34.0571L113.16 34.4383C112.906 34.0252 112.644 33.6177 112.373 33.2159L112.976 32.8098C113.252 33.2197 113.52 33.6356 113.78 34.0571ZM110.752 29.843L110.193 30.3083C109.883 29.9356 109.565 29.5693 109.24 29.2097L109.78 28.7221C110.112 29.0891 110.436 29.4628 110.752 29.843ZM107.158 26.1002L106.671 26.6399C106.311 26.315 105.945 25.9973 105.572 25.6871L106.037 25.1281C106.418 25.4446 106.791 25.7687 107.158 26.1002ZM103.071 22.9038L102.664 23.5071C102.263 23.2367 101.855 22.9742 101.442 22.7199L101.823 22.1006C102.245 22.3601 102.661 22.6279 103.071 22.9038ZM98.5701 20.3207L98.2541 20.9757C97.8184 20.7655 97.3777 20.5639 96.9324 20.3711L97.2213 19.7037C97.6758 19.9004 98.1255 20.1062 98.5701 20.3207ZM93.7472 18.4074L93.5283 19.1009C93.0674 18.9554 92.6025 18.8191 92.1338 18.6921L92.324 17.9901C92.8024 18.1198 93.2768 18.2589 93.7472 18.4074ZM88.7002 17.2053L88.5829 17.923C88.1064 17.8451 87.6268 17.7767 87.1441 17.7179L87.2321 16.996C87.7246 17.056 88.214 17.1258 88.7002 17.2053ZM83.5338 16.7348L83.5192 17.4619C83.2765 17.457 83.0332 17.4546 82.7894 17.4546C82.5455 17.4546 82.3023 17.457 82.0596 17.4619L82.045 16.7348C82.2925 16.7298 82.5407 16.7273 82.7894 16.7273C83.0381 16.7273 83.2863 16.7298 83.5338 16.7348ZM78.3467 16.996L78.4346 17.7179C77.952 17.7767 77.4724 17.8451 76.9959 17.923L76.8786 17.2053C77.3648 17.1258 77.8542 17.056 78.3467 16.996ZM73.2548 17.9901L73.445 18.6921C72.9763 18.8191 72.5114 18.9554 72.0505 19.1009L71.8316 18.4074C72.3019 18.2589 72.7764 18.1198 73.2548 17.9901ZM68.3575 19.7037C67.903 19.9004 67.4533 20.1062 67.0086 20.3207L67.3246 20.9757C67.7604 20.7655 68.201 20.5639 68.6464 20.3711L68.3575 19.7037ZM63.7556 22.1006L64.1368 22.7199C63.7237 22.9742 63.3161 23.2367 62.9144 23.5071L62.5083 22.9038C62.9182 22.6279 63.3341 22.3601 63.7556 22.1006ZM59.5415 25.1281L60.0068 25.6871C59.6341 25.9973 59.2678 26.315 58.9082 26.6399L58.4206 26.1002C58.7875 25.7687 59.1613 25.4446 59.5415 25.1281ZM55.7987 28.7221L56.3384 29.2097C56.0135 29.5693 55.6958 29.9356 55.3856 30.3083L54.8266 29.843C55.1431 29.4628 55.4672 29.0891 55.7987 28.7221ZM52.6023 32.8098L53.2056 33.2159C52.9352 33.6177 52.6727 34.0252 52.4184 34.4383L51.7991 34.0571C52.0585 33.6356 52.3264 33.2197 52.6023 32.8098ZM50.0192 37.3101L50.6742 37.6262C50.464 38.0619 50.2624 38.5025 50.0696 38.9479L49.4022 38.659C49.5989 38.2045 49.8046 37.7548 50.0192 37.3101ZM48.1058 42.1331L48.7994 42.352C48.6539 42.8129 48.5176 43.2778 48.3906 43.7465L47.6886 43.5563C47.8182 43.0779 47.9574 42.6034 48.1058 42.1331ZM46.9038 47.1801L47.6215 47.2974C47.5436 47.7739 47.4752 48.2535 47.4164 48.7362L46.6944 48.6482C46.7544 48.1557 46.8243 47.6663 46.9038 47.1801ZM46.4332 52.3465C46.4283 52.594 46.4258 52.8422 46.4258 53.0909C46.4258 53.3396 46.4283 53.5878 46.4332 53.8353L47.1604 53.8207C47.1555 53.578 47.1531 53.3348 47.1531 53.0909C47.1531 52.847 47.1555 52.6038 47.1604 52.3611L46.4332 52.3465ZM46.6944 57.5336L47.4164 57.4456C47.4752 57.9283 47.5436 58.4079 47.6215 58.8844L46.9038 59.0017C46.8243 58.5155 46.7544 58.0261 46.6944 57.5336ZM47.6886 62.6255L48.3906 62.4353C48.5176 62.904 48.6539 63.3689 48.7994 63.8298L48.1058 64.0487C47.9574 63.5784 47.8182 63.1039 47.6886 62.6255ZM49.4022 67.5228C49.5989 67.9773 49.8046 68.427 50.0192 68.8717L50.6742 68.5556C50.464 68.1199 50.2624 67.6793 50.0696 67.2339L49.4022 67.5228ZM51.7991 72.1247L52.4184 71.7435C52.6727 72.1566 52.9352 72.5641 53.2056 72.9659L52.6023 73.372C52.3264 72.9621 52.0585 72.5462 51.7991 72.1247ZM54.8266 76.3388L55.3856 75.8735C55.6958 76.2462 56.0135 76.6125 56.3384 76.9721L55.7987 77.4597C55.4672 77.0927 55.1431 76.719 54.8266 76.3388ZM58.4206 80.0816L58.9082 79.5419C59.2678 79.8668 59.6341 80.1845 60.0068 80.4947L59.5415 81.0537C59.1613 80.7372 58.7875 80.4131 58.4206 80.0816ZM62.5083 83.278L62.9144 82.6747C63.3161 82.9451 63.7237 83.2076 64.1368 83.4619L63.7556 84.0812C63.3341 83.8217 62.9182 83.5539 62.5083 83.278ZM67.0086 85.8611L67.3246 85.2061C67.7604 85.4163 68.201 85.6179 68.6464 85.8107L68.3575 86.4781C67.903 86.2814 67.4533 86.0756 67.0086 85.8611ZM71.8316 87.7744L72.0505 87.0809C72.5114 87.2264 72.9763 87.3627 73.445 87.4897L73.2548 88.1917C72.7764 88.062 72.3019 87.9229 71.8316 87.7744ZM76.8786 88.9765L76.9959 88.2588C77.4724 88.3367 77.952 88.4051 78.4346 88.4639L78.3467 89.1858C77.8542 89.1258 77.3648 89.056 76.8786 88.9765ZM82.045 89.447L82.0596 88.7199C82.3023 88.7248 82.5455 88.7272 82.7894 88.7272C83.0332 88.7272 83.2765 88.7248 83.5192 88.7199L83.5338 89.447C83.2863 89.452 83.0381 89.4545 82.7894 89.4545C82.5407 89.4545 82.2925 89.452 82.045 89.447ZM87.2321 89.1858L87.1441 88.4639C87.6268 88.4051 88.1064 88.3367 88.5829 88.2588L88.7002 88.9765C88.214 89.056 87.7246 89.1258 87.2321 89.1858ZM92.324 88.1917L92.1338 87.4897C92.6025 87.3627 93.0674 87.2264 93.5283 87.0809L93.7472 87.7744C93.2768 87.9229 92.8024 88.062 92.324 88.1917ZM97.2213 86.4781L96.9324 85.8107C97.3777 85.6179 97.8184 85.4163 98.2541 85.2061L98.5701 85.8611C98.1255 86.0757 97.6758 86.2814 97.2213 86.4781ZM101.823 84.0812L101.442 83.4619C101.855 83.2076 102.263 82.9451 102.664 82.6747L103.071 83.278C102.661 83.5539 102.245 83.8218 101.823 84.0812ZM106.037 81.0537L105.572 80.4947C105.945 80.1845 106.311 79.8668 106.671 79.5419L107.158 80.0816C106.791 80.4131 106.418 80.7372 106.037 81.0537ZM109.78 77.4597L109.24 76.9721C109.565 76.6125 109.883 76.2462 110.193 75.8735L110.752 76.3388C110.436 76.719 110.112 77.0927 109.78 77.4597ZM112.976 73.372L112.373 72.9659C112.644 72.5641 112.906 72.1566 113.16 71.7435L113.78 72.1247C113.52 72.5462 113.252 72.9621 112.976 73.372ZM115.56 68.8717L114.905 68.5556C115.115 68.1199 115.316 67.6793 115.509 67.2339L116.177 67.5228C115.98 67.9773 115.774 68.427 115.56 68.8717ZM117.473 64.0487L116.779 63.8298C116.925 63.3689 117.061 62.904 117.188 62.4353L117.89 62.6255C117.761 63.1039 117.621 63.5784 117.473 64.0487ZM118.675 59.0017L117.957 58.8844C118.035 58.4079 118.104 57.9283 118.162 57.4456L118.884 57.5336C118.824 58.0261 118.755 58.5155 118.675 59.0017Z" fill="#BFA1FF"/>
<path fill-rule="evenodd" clip-rule="evenodd" d="M83.1028 83.6693C99.8191 83.6693 113.37 70.118 113.37 53.4016C113.37 36.6853 99.8191 23.134 83.1028 23.134C66.3865 23.134 52.8352 36.6853 52.8352 53.4016C52.8352 70.118 66.3865 83.6693 83.1028 83.6693ZM83.1028 84.3965C100.221 84.3965 114.098 70.5196 114.098 53.4016C114.098 36.2836 100.221 22.4067 83.1028 22.4067C65.9848 22.4067 52.1079 36.2836 52.1079 53.4016C52.1079 70.5196 65.9848 84.3965 83.1028 84.3965Z" fill="#BFA1FF"/>
</svg>
