<svg width="388" height="121" viewBox="0 0 388 121" fill="none" xmlns="http://www.w3.org/2000/svg">
    <path d="M204 13.4999L204.241 12.5293L204 13.4999ZM0.499772 14.3658C0.0215509 14.0896 -0.142207 13.4779 0.134037 12.9997L4.63575 5.20647C4.91199 4.72823 5.52362 4.56449 6.00186 4.84075C6.48009 5.11699 6.64382 5.72861 6.36757 6.20684L2.36608 13.1342L9.2934 17.1357C9.77163 17.4119 9.93536 18.0236 9.65911 18.5018C9.38287 18.98 8.77125 19.1438 8.29302 18.8675L0.499772 14.3658ZM0.741357 12.5339C1.37416 12.3645 2.00879 12.1971 2.64522 12.0316L3.14855 13.9672C2.5167 14.1315 1.8867 14.2977 1.25857 14.4659L0.741357 12.5339ZM6.48498 11.0621C7.75818 10.7501 9.03806 10.4456 10.3243 10.1487L10.7741 12.0975C9.49653 12.3924 8.2254 12.6948 6.96104 13.0046L6.48498 11.0621ZM14.1846 9.28428C15.4683 9.00554 16.7578 8.7341 18.053 8.46989L18.4527 10.4295C17.1657 10.6921 15.8843 10.9618 14.609 11.2387L14.1846 9.28428ZM21.9271 7.70417C23.2191 7.4569 24.5163 7.21664 25.8183 6.98335L26.171 8.95199C24.8767 9.18392 23.5872 9.42275 22.303 9.66852L21.9271 7.70417ZM29.7071 6.30949C31.0031 6.09246 32.3036 5.88217 33.6083 5.67855L33.9167 7.65463C32.6193 7.85712 31.3261 8.06623 30.0374 8.28202L29.7071 6.30949ZM37.5172 5.09011C38.8167 4.90162 40.1199 4.71962 41.4266 4.54403L41.693 6.52622C40.3931 6.70088 39.0968 6.88192 37.8044 7.0694L37.5172 5.09011ZM45.3479 4.03757C46.6514 3.87596 47.9581 3.72062 49.2676 3.5715L49.4939 5.55866C48.1909 5.70704 46.8908 5.86159 45.594 6.02238L45.3479 4.03757ZM53.1946 3.14372C54.5027 3.00764 55.8133 2.87767 57.1261 2.75375L57.3141 4.74489C56.0075 4.86823 54.7032 4.99758 53.4015 5.13298L53.1946 3.14372ZM61.058 2.40113C62.3691 2.2897 63.6821 2.18419 64.9968 2.08457L65.1479 4.07885C63.8393 4.17802 62.5323 4.28304 61.2274 4.39396L61.058 2.40113ZM68.934 1.80406C70.2467 1.71645 71.5607 1.63461 72.8759 1.55849L72.9914 3.55515C71.6821 3.63093 70.3739 3.71239 69.0672 3.79962L68.934 1.80406ZM76.8191 1.34755C78.1331 1.28297 79.448 1.22404 80.7635 1.17069L80.8446 3.16905C79.5347 3.22216 78.2255 3.28084 76.9172 3.34514L76.8191 1.34755ZM84.7099 1.02745C86.0252 0.985254 87.3409 0.94861 88.6566 0.917433L88.704 2.91687C87.3938 2.94791 86.0837 2.98441 84.774 3.02642L84.7099 1.02745ZM92.6042 0.840273C93.9206 0.820001 95.2366 0.805152 96.5522 0.795672L96.5666 2.79563C95.2565 2.80506 93.9459 2.81985 92.6351 2.84004L92.6042 0.840273ZM100.501 0.783357C101.817 0.784599 103.133 0.791183 104.448 0.803059L104.43 2.80298C103.12 2.79115 101.81 2.78459 100.499 2.78335L100.501 0.783357ZM108.397 0.85468C109.714 0.877188 111.029 0.904964 112.343 0.937967L112.293 2.93732C110.984 2.90447 109.674 2.8768 108.363 2.85438L108.397 0.85468ZM116.291 1.05293C117.608 1.09658 118.923 1.14546 120.236 1.19948L120.154 3.1978C118.846 3.14398 117.536 3.09531 116.224 3.05185L116.291 1.05293ZM124.178 1.37748C125.496 1.44226 126.811 1.51224 128.124 1.58736L128.01 3.5841C126.702 3.5093 125.392 3.43959 124.08 3.37506L124.178 1.37748ZM132.061 1.82855C133.378 1.91457 134.692 2.00573 136.003 2.10199L135.856 4.09661C134.551 4.00075 133.242 3.90996 131.931 3.8243L132.061 1.82855ZM139.939 2.4073C141.253 2.51458 142.563 2.62701 143.869 2.74449L143.69 4.73645C142.39 4.61946 141.085 4.50751 139.777 4.40066L139.939 2.4073ZM147.805 3.11508C149.118 3.24419 150.426 3.37842 151.729 3.5177L151.517 5.50638C150.219 5.36769 148.917 5.23404 147.61 5.10547L147.805 3.11508ZM155.656 3.95429C156.969 4.10599 158.276 4.26283 159.579 4.42478L159.332 6.40949C158.035 6.24827 156.733 6.09211 155.426 5.94108L155.656 3.95429ZM163.486 4.92824C164.799 5.10336 166.107 5.28366 167.407 5.46912L167.125 7.44911C165.83 7.2645 164.529 7.08501 163.222 6.91069L163.486 4.92824ZM171.314 6.04449C172.619 6.243 173.918 6.44673 175.209 6.65562L174.89 8.62996C173.605 8.42209 172.312 8.21933 171.013 8.02177L171.314 6.04449ZM179.114 7.30665C180.417 7.53063 181.713 7.75992 183 7.99444L182.642 9.96206C181.361 9.72875 180.072 9.50062 178.775 9.27777L179.114 7.30665ZM186.879 8.72165C188.182 8.97319 189.477 9.23019 190.762 9.49254L190.362 11.4521C189.084 11.1912 187.796 10.9356 186.5 10.6854L186.879 8.72165ZM194.626 10.3039C195.92 10.5832 197.204 10.8681 198.476 11.1584L198.031 13.1083C196.766 12.8197 195.491 12.5366 194.204 12.2589L194.626 10.3039ZM202.334 12.0633C202.973 12.2173 203.608 12.3726 204.241 12.5293L203.759 14.4705C203.131 14.3149 202.5 14.1606 201.866 14.0076L202.334 12.0633ZM204.241 12.5293C204.883 12.6885 205.525 12.8497 206.167 13.013L205.674 14.9513C205.036 14.789 204.398 14.6288 203.759 14.4705L204.241 12.5293ZM210.015 14.0167C211.294 14.3588 212.573 14.7088 213.849 15.0665L213.309 16.9923C212.04 16.6367 210.77 16.2888 209.498 15.9488L210.015 14.0167ZM217.672 16.1622C218.943 16.5346 220.212 16.9146 221.479 17.302L220.895 19.2146C219.635 18.8294 218.373 18.4517 217.109 18.0815L217.672 16.1622ZM225.275 18.486C226.537 18.8877 227.797 19.2966 229.055 19.7127L228.427 21.6116C227.176 21.1978 225.923 20.7912 224.668 20.3918L225.275 18.486ZM232.822 20.9819C234.075 21.4118 235.326 21.8487 236.575 22.2925L235.905 24.177C234.663 23.7357 233.419 23.3012 232.173 22.8736L232.822 20.9819ZM240.313 23.6439C241.556 24.1011 242.797 24.565 244.035 25.0355L243.325 26.9051C242.094 26.4372 240.859 25.9758 239.622 25.5211L240.313 23.6439ZM247.744 26.4666C248.977 26.9502 250.208 27.4401 251.435 27.9363L250.686 29.7906C249.465 29.297 248.24 28.8096 247.014 28.3286L247.744 26.4666ZM255.113 29.4448C256.336 29.954 257.556 30.4693 258.773 30.9906L257.986 32.8291C256.775 32.3104 255.561 31.7978 254.344 31.2913L255.113 29.4448ZM262.419 32.574C263.632 33.1081 264.841 33.6481 266.048 34.1938L265.223 36.016C264.023 35.473 262.82 34.9358 261.613 34.4044L262.419 32.574ZM269.66 35.8498C270.862 36.4083 272.061 36.9724 273.256 37.542L272.395 39.3475C271.206 38.7807 270.013 38.2194 268.817 37.6637L269.66 35.8498ZM276.833 39.2685C278.025 39.8509 279.212 40.4387 280.396 41.0316L279.501 42.8198C278.323 42.2298 277.141 41.6449 275.955 41.0654L276.833 39.2685ZM283.938 42.8273C285.119 43.433 286.295 44.0438 287.467 44.6595L286.537 46.43C285.37 45.8173 284.2 45.2095 283.025 44.6068L283.938 42.8273ZM290.975 46.524C292.143 47.1521 293.306 47.7851 294.465 48.4228L293.501 50.1751C292.348 49.5405 291.19 48.9105 290.027 48.2854L290.975 46.524ZM297.938 50.3552C299.093 51.0053 300.244 51.66 301.389 52.3191L300.392 54.0526C299.252 53.3967 298.107 52.7451 296.957 52.0982L297.938 50.3552ZM304.827 54.3188C305.969 54.9908 307.106 55.6671 308.238 56.3475L307.208 58.0617C306.081 57.3845 304.949 56.7114 303.813 56.0427L304.827 54.3188ZM311.637 58.4131C312.768 59.1074 313.892 59.8059 315.012 60.5083L313.949 62.2023C312.835 61.5033 311.715 60.8083 310.59 60.1173L311.637 58.4131ZM318.367 62.6365C319.485 63.3533 320.597 64.0739 321.703 64.7982L320.608 66.4714C319.507 65.7506 318.4 65.0335 317.288 64.3203L318.367 62.6365ZM325.013 66.988C326.118 67.7273 327.217 68.4702 328.31 69.2165L327.182 70.868C326.095 70.1254 325.001 69.3862 323.901 68.6505L325.013 66.988ZM331.577 71.4719C332.667 72.2322 333.75 72.9959 334.827 73.7627L333.666 75.3915C332.595 74.6286 331.517 73.8687 330.433 73.1122L331.577 71.4719ZM338.052 76.0856C339.125 76.8663 340.191 77.65 341.249 78.4365L340.056 80.0416C339.003 79.2591 337.943 78.4794 336.876 77.7027L338.052 76.0856ZM344.432 80.8281C345.489 81.6313 346.539 82.4373 347.581 83.2459L346.355 84.8259C345.319 84.0216 344.274 83.2198 343.222 82.4208L344.432 80.8281ZM350.709 85.6997C351.752 86.5269 352.786 87.3564 353.812 88.1883L352.552 89.7418C351.532 88.9145 350.503 88.0894 349.466 87.2667L350.709 85.6997ZM356.879 90.703C357.905 91.5542 358.923 92.4074 359.931 93.2626L358.637 94.7878C357.635 93.9374 356.623 93.089 355.602 92.2426L356.879 90.703ZM362.947 95.8513C363.951 96.7225 364.945 97.5955 365.929 98.4702L364.6 99.965C363.622 99.0956 362.634 98.2277 361.636 97.3615L362.947 95.8513ZM368.891 101.135C369.875 102.032 370.849 102.93 371.812 103.829L370.448 105.291C369.491 104.397 368.523 103.505 367.544 102.614L368.891 101.135ZM374.698 106.557C375.663 107.481 376.617 108.406 377.558 109.332L376.156 110.759C375.221 109.839 374.273 108.92 373.315 108.002L374.698 106.557ZM380.374 112.138C381.311 113.085 382.235 114.032 383.147 114.979L381.706 116.366C380.801 115.425 379.883 114.485 378.953 113.545L380.374 112.138ZM385.892 117.873C386.343 118.356 386.791 118.839 387.236 119.322L385.764 120.677C385.323 120.198 384.878 119.718 384.43 119.239L385.892 117.873Z" fill="#9E77F3"/>
</svg>
