<svg width="918" height="470" viewBox="0 0 918 470" fill="none" xmlns="http://www.w3.org/2000/svg">
    <path d="M139.818 246.526H163.448C187.506 246.526 185.178 236.411 185.178 215.403C185.178 181.557 185.178 98.3032 185.178 91.6896C185.178 85.076 188.67 72.2378 205.356 72.2378C218.704 72.2378 217.411 72.2378 235.132 72.2378" stroke="#BFA1FF" stroke-width="2.33422" stroke-linecap="round"/>
    <path d="M140.596 246.526H163.448C187.506 246.526 185.178 236.411 185.178 215.403C185.178 181.557 185.178 194.784 185.178 188.171C185.178 181.557 188.67 168.719 205.356 168.719C218.704 168.719 217.411 168.719 235.132 168.719" stroke="#BFA1FF" stroke-width="2.33422" stroke-linecap="round"/>
    <path d="M724.359 246.526H700.729C676.671 246.526 678.999 236.411 678.999 215.403C678.999 181.557 678.999 98.3032 678.999 91.6896C678.999 85.076 675.507 72.2378 658.821 72.2378C645.473 72.2378 646.766 72.2378 629.045 72.2378" stroke="#BFA1FF" stroke-width="2.33422" stroke-linecap="round"/>
    <path d="M723.581 246.526H700.729C676.671 246.526 678.999 236.411 678.999 215.403C678.999 181.557 678.999 194.784 678.999 188.171C678.999 181.557 675.507 168.719 658.821 168.719C645.473 168.719 646.766 168.719 629.045 168.719" stroke="#BFA1FF" stroke-width="2.33422" stroke-linecap="round"/>
    <path d="M311.772 167.941C325.12 167.941 322.271 167.941 339.992 167.941" stroke="#BFA1FF" stroke-width="2.33422" stroke-linecap="round"/>
    <path d="M311.772 72.2378C325.12 72.2378 322.271 72.2378 339.992 72.2378" stroke="#BFA1FF" stroke-width="2.33422" stroke-linecap="round"/>
    <path d="M140.596 246.526C153.944 246.526 218.788 246.526 236.508 246.526" stroke="#BFA1FF" stroke-width="2.33422" stroke-linecap="round"/>
    <path d="M418.368 167.941C431.617 167.941 428.789 167.941 446.379 167.941" stroke="#BFA1FF" stroke-width="2.33422" stroke-linecap="round"/>
    <path d="M418.368 73.0159C431.617 73.0159 428.789 73.0159 446.379 73.0159" stroke="#BFA1FF" stroke-width="2.33422" stroke-linecap="round"/>
    <path d="M311.772 246.526C325.12 246.526 322.271 246.526 339.992 246.526" stroke="#BFA1FF" stroke-width="2.33422" stroke-linecap="round"/>
    <path d="M723.581 246.526C710.233 246.526 436.866 246.526 419.146 246.526" stroke="#BFA1FF" stroke-width="2.33422" stroke-linecap="round"/>
    <path d="M312.55 392.804L656.746 392.804C680.804 392.804 678.476 382.689 678.476 361.681C678.476 327.835 678.476 295.934 678.476 289.32C678.476 282.706 681.968 269.868 698.654 269.868C712.002 269.868 713.822 269.868 731.542 269.868" stroke="#BFA1FF" stroke-width="2.33422" stroke-linecap="round"/>
    <path d="M522.629 70.9407C535.978 70.9407 533.129 70.9407 550.849 70.9407" stroke="#BFA1FF" stroke-width="2.33422" stroke-linecap="round"/>
    <path d="M141.374 269.868H165.004C189.062 269.868 186.734 279.983 186.734 300.991C186.734 334.837 186.734 367.516 186.734 374.13C186.734 380.744 190.227 393.582 206.912 393.582C220.261 393.582 218.968 393.582 236.688 393.582" stroke="#BFA1FF" stroke-width="2.33422" stroke-linecap="round"/>
    <g filter="url(#filter0_d_174_3108)">
        <g clip-path="url(#clip0_174_3108)">
            <rect x="716" y="181" width="168" height="150" rx="3.11229" fill="white"/>
            <rect opacity="0.1" x="716.408" y="180.503" width="198" height="177" fill="#9E77F3"/>
            <path d="M755.237 207.998L752.928 212.412V215H752.107V212.432L749.856 207.998H750.789L752.356 211.162C752.376 211.201 752.433 211.344 752.527 211.592H752.542C752.575 211.481 752.636 211.338 752.728 211.162L754.368 207.998H755.237ZM757.317 215.117C756.578 215.117 755.988 214.884 755.545 214.419C755.105 213.95 754.886 213.33 754.886 212.559C754.886 211.719 755.115 211.063 755.574 210.591C756.033 210.119 756.653 209.883 757.435 209.883C758.18 209.883 758.761 210.112 759.178 210.571C759.598 211.03 759.808 211.667 759.808 212.48C759.808 213.278 759.581 213.918 759.129 214.399C758.68 214.878 758.076 215.117 757.317 215.117ZM757.376 210.557C756.862 210.557 756.455 210.732 756.155 211.084C755.856 211.432 755.706 211.914 755.706 212.529C755.706 213.122 755.857 213.589 756.16 213.931C756.463 214.272 756.868 214.443 757.376 214.443C757.894 214.443 758.291 214.276 758.567 213.94C758.847 213.605 758.987 213.128 758.987 212.51C758.987 211.885 758.847 211.403 758.567 211.064C758.291 210.726 757.894 210.557 757.376 210.557ZM765.13 215H764.329V214.209H764.31C763.978 214.814 763.463 215.117 762.767 215.117C761.575 215.117 760.979 214.408 760.979 212.988V210H761.775V212.861C761.775 213.916 762.179 214.443 762.986 214.443C763.377 214.443 763.698 214.3 763.948 214.014C764.202 213.724 764.329 213.346 764.329 212.881V210H765.13V215ZM769.358 210.811C769.218 210.703 769.017 210.649 768.753 210.649C768.411 210.649 768.125 210.811 767.894 211.133C767.666 211.455 767.552 211.895 767.552 212.451V215H766.751V210H767.552V211.03H767.571C767.685 210.679 767.859 210.405 768.094 210.21C768.328 210.011 768.59 209.912 768.88 209.912C769.088 209.912 769.248 209.935 769.358 209.98V210.811ZM775.579 210.811C775.439 210.703 775.237 210.649 774.974 210.649C774.632 210.649 774.345 210.811 774.114 211.133C773.886 211.455 773.772 211.895 773.772 212.451V215H772.972V210H773.772V211.03H773.792C773.906 210.679 774.08 210.405 774.314 210.21C774.549 210.011 774.811 209.912 775.101 209.912C775.309 209.912 775.468 209.935 775.579 209.98V210.811ZM780.467 212.7H776.937C776.95 213.257 777.099 213.687 777.386 213.989C777.672 214.292 778.066 214.443 778.567 214.443C779.131 214.443 779.648 214.258 780.12 213.887V214.639C779.681 214.958 779.1 215.117 778.377 215.117C777.671 215.117 777.116 214.891 776.712 214.438C776.308 213.983 776.106 213.343 776.106 212.52C776.106 211.742 776.326 211.108 776.766 210.62C777.208 210.129 777.757 209.883 778.411 209.883C779.065 209.883 779.572 210.094 779.93 210.518C780.288 210.941 780.467 211.528 780.467 212.28V212.7ZM779.646 212.021C779.643 211.559 779.531 211.2 779.31 210.942C779.091 210.685 778.787 210.557 778.396 210.557C778.019 210.557 777.698 210.692 777.435 210.962C777.171 211.232 777.008 211.585 776.946 212.021H779.646ZM785.95 217.3H785.149V214.141H785.13C784.782 214.792 784.212 215.117 783.421 215.117C782.793 215.117 782.288 214.894 781.907 214.448C781.53 213.999 781.341 213.389 781.341 212.617C781.341 211.787 781.549 211.125 781.966 210.63C782.382 210.132 782.942 209.883 783.646 209.883C784.329 209.883 784.824 210.153 785.13 210.693H785.149V210H785.95V217.3ZM785.149 212.749V212.021C785.149 211.611 785.014 211.265 784.744 210.981C784.477 210.698 784.137 210.557 783.724 210.557C783.242 210.557 782.861 210.736 782.581 211.094C782.301 211.449 782.161 211.95 782.161 212.598C782.161 213.174 782.296 213.626 782.566 213.955C782.837 214.281 783.185 214.443 783.611 214.443C784.08 214.443 784.453 214.284 784.729 213.965C785.009 213.643 785.149 213.237 785.149 212.749ZM791.614 215H790.813V214.209H790.794C790.462 214.814 789.948 215.117 789.251 215.117C788.06 215.117 787.464 214.408 787.464 212.988V210H788.26V212.861C788.26 213.916 788.663 214.443 789.471 214.443C789.861 214.443 790.182 214.3 790.433 214.014C790.687 213.724 790.813 213.346 790.813 212.881V210H791.614V215ZM793.646 208.73C793.502 208.73 793.38 208.682 793.279 208.584C793.178 208.486 793.128 208.363 793.128 208.213C793.128 208.063 793.178 207.939 793.279 207.842C793.38 207.741 793.502 207.69 793.646 207.69C793.792 207.69 793.916 207.741 794.017 207.842C794.121 207.939 794.173 208.063 794.173 208.213C794.173 208.356 794.121 208.478 794.017 208.579C793.916 208.68 793.792 208.73 793.646 208.73ZM794.036 215H793.235V210H794.036V215ZM798.265 210.811C798.125 210.703 797.923 210.649 797.659 210.649C797.317 210.649 797.031 210.811 796.8 211.133C796.572 211.455 796.458 211.895 796.458 212.451V215H795.657V210H796.458V211.03H796.478C796.591 210.679 796.766 210.405 797 210.21C797.234 210.011 797.496 209.912 797.786 209.912C797.994 209.912 798.154 209.935 798.265 209.98V210.811ZM803.152 212.7H799.622C799.635 213.257 799.785 213.687 800.071 213.989C800.358 214.292 800.752 214.443 801.253 214.443C801.816 214.443 802.334 214.258 802.806 213.887V214.639C802.366 214.958 801.785 215.117 801.062 215.117C800.356 215.117 799.801 214.891 799.397 214.438C798.994 213.983 798.792 213.343 798.792 212.52C798.792 211.742 799.012 211.108 799.451 210.62C799.894 210.129 800.442 209.883 801.097 209.883C801.751 209.883 802.257 210.094 802.615 210.518C802.973 210.941 803.152 211.528 803.152 212.28V212.7ZM802.332 212.021C802.329 211.559 802.216 211.2 801.995 210.942C801.777 210.685 801.473 210.557 801.082 210.557C800.704 210.557 800.384 210.692 800.12 210.962C799.856 211.232 799.694 211.585 799.632 212.021H802.332ZM811.468 215H810.667V212.129C810.667 211.576 810.581 211.175 810.408 210.928C810.239 210.68 809.952 210.557 809.549 210.557C809.207 210.557 808.916 210.713 808.675 211.025C808.437 211.338 808.318 211.712 808.318 212.148V215H807.518V212.031C807.518 211.048 807.138 210.557 806.38 210.557C806.028 210.557 805.739 210.705 805.511 211.001C805.283 211.294 805.169 211.676 805.169 212.148V215H804.368V210H805.169V210.791H805.188C805.543 210.186 806.061 209.883 806.741 209.883C807.083 209.883 807.381 209.979 807.635 210.171C807.889 210.36 808.063 210.609 808.157 210.918C808.528 210.228 809.082 209.883 809.817 209.883C810.918 209.883 811.468 210.562 811.468 211.919V215ZM817 212.7H813.47C813.483 213.257 813.632 213.687 813.919 213.989C814.205 214.292 814.599 214.443 815.101 214.443C815.664 214.443 816.181 214.258 816.653 213.887V214.639C816.214 214.958 815.633 215.117 814.91 215.117C814.204 215.117 813.649 214.891 813.245 214.438C812.841 213.983 812.64 213.343 812.64 212.52C812.64 211.742 812.859 211.108 813.299 210.62C813.742 210.129 814.29 209.883 814.944 209.883C815.599 209.883 816.105 210.094 816.463 210.518C816.821 210.941 817 211.528 817 212.28V212.7ZM816.18 212.021C816.176 211.559 816.064 211.2 815.843 210.942C815.625 210.685 815.32 210.557 814.93 210.557C814.552 210.557 814.231 210.692 813.968 210.962C813.704 211.232 813.541 211.585 813.479 212.021H816.18ZM822.366 215H821.565V212.148C821.565 211.087 821.178 210.557 820.403 210.557C820.003 210.557 819.671 210.708 819.407 211.011C819.147 211.31 819.017 211.689 819.017 212.148V215H818.216V210H819.017V210.83H819.036C819.414 210.199 819.961 209.883 820.677 209.883C821.224 209.883 821.642 210.06 821.932 210.415C822.221 210.767 822.366 211.276 822.366 211.943V215ZM826.199 214.951C826.01 215.055 825.761 215.107 825.452 215.107C824.576 215.107 824.139 214.619 824.139 213.643V210.684H823.279V210H824.139V208.779L824.939 208.521V210H826.199V210.684H824.939V213.501C824.939 213.836 824.996 214.076 825.11 214.219C825.224 214.362 825.413 214.434 825.677 214.434C825.879 214.434 826.053 214.378 826.199 214.268V214.951ZM826.966 214.819V213.96C827.402 214.282 827.882 214.443 828.406 214.443C829.109 214.443 829.461 214.209 829.461 213.74C829.461 213.607 829.43 213.494 829.368 213.403C829.31 213.309 829.228 213.226 829.124 213.154C829.023 213.083 828.903 213.019 828.763 212.964C828.626 212.905 828.478 212.845 828.318 212.783C828.097 212.695 827.902 212.607 827.732 212.52C827.566 212.428 827.426 212.327 827.312 212.217C827.202 212.103 827.117 211.974 827.059 211.831C827.003 211.688 826.976 211.52 826.976 211.328C826.976 211.094 827.029 210.887 827.137 210.708C827.244 210.526 827.387 210.374 827.566 210.254C827.745 210.13 827.949 210.037 828.177 209.976C828.408 209.914 828.646 209.883 828.89 209.883C829.323 209.883 829.71 209.958 830.052 210.107V210.918C829.684 210.677 829.261 210.557 828.782 210.557C828.632 210.557 828.497 210.575 828.377 210.61C828.257 210.643 828.152 210.69 828.064 210.752C827.98 210.814 827.913 210.889 827.864 210.977C827.819 211.061 827.796 211.156 827.796 211.26C827.796 211.39 827.819 211.499 827.864 211.587C827.913 211.675 827.983 211.753 828.074 211.821C828.165 211.89 828.276 211.951 828.406 212.007C828.536 212.062 828.685 212.122 828.851 212.188C829.072 212.272 829.271 212.36 829.446 212.451C829.622 212.539 829.772 212.64 829.896 212.754C830.019 212.865 830.114 212.993 830.179 213.14C830.247 213.286 830.281 213.46 830.281 213.662C830.281 213.91 830.226 214.124 830.115 214.307C830.008 214.489 829.863 214.64 829.681 214.761C829.498 214.881 829.288 214.971 829.051 215.029C828.813 215.088 828.564 215.117 828.304 215.117C827.789 215.117 827.343 215.018 826.966 214.819ZM838.411 215H837.61V212.119C837.61 211.077 837.223 210.557 836.448 210.557C836.058 210.557 835.729 210.708 835.462 211.011C835.195 211.31 835.062 211.696 835.062 212.168V215H834.261V207.598H835.062V210.83H835.081C835.465 210.199 836.012 209.883 836.722 209.883C837.848 209.883 838.411 210.562 838.411 211.919V215ZM843.504 215H842.703V214.219H842.684C842.335 214.818 841.823 215.117 841.146 215.117C840.647 215.117 840.257 214.985 839.974 214.722C839.694 214.458 839.554 214.108 839.554 213.672C839.554 212.738 840.104 212.194 841.204 212.041L842.703 211.831C842.703 210.981 842.36 210.557 841.673 210.557C841.071 210.557 840.527 210.762 840.042 211.172V210.352C840.534 210.039 841.1 209.883 841.741 209.883C842.916 209.883 843.504 210.505 843.504 211.748V215ZM842.703 212.471L841.497 212.637C841.126 212.689 840.846 212.782 840.657 212.915C840.468 213.045 840.374 213.278 840.374 213.613C840.374 213.857 840.46 214.058 840.633 214.214C840.809 214.367 841.041 214.443 841.331 214.443C841.728 214.443 842.055 214.305 842.312 214.028C842.573 213.748 842.703 213.395 842.703 212.969V212.471ZM848.943 210L846.951 215H846.165L844.271 210H845.149L846.419 213.633C846.513 213.9 846.572 214.132 846.595 214.331H846.614C846.647 214.08 846.699 213.854 846.771 213.652L848.099 210H848.943ZM853.826 212.7H850.296C850.309 213.257 850.459 213.687 850.745 213.989C851.032 214.292 851.425 214.443 851.927 214.443C852.49 214.443 853.007 214.258 853.479 213.887V214.639C853.04 214.958 852.459 215.117 851.736 215.117C851.03 215.117 850.475 214.891 850.071 214.438C849.668 213.983 849.466 213.343 849.466 212.52C849.466 211.742 849.686 211.108 850.125 210.62C850.568 210.129 851.116 209.883 851.771 209.883C852.425 209.883 852.931 210.094 853.289 210.518C853.647 210.941 853.826 211.528 853.826 212.28V212.7ZM853.006 212.021C853.003 211.559 852.89 211.2 852.669 210.942C852.451 210.685 852.146 210.557 851.756 210.557C851.378 210.557 851.058 210.692 850.794 210.962C850.53 211.232 850.368 211.585 850.306 212.021H853.006ZM744.207 229.277H744.188V230H743.387V222.598H744.188V225.879H744.207C744.601 225.215 745.177 224.883 745.936 224.883C746.577 224.883 747.078 225.107 747.439 225.557C747.804 226.003 747.986 226.602 747.986 227.354C747.986 228.19 747.783 228.861 747.376 229.365C746.969 229.867 746.412 230.117 745.706 230.117C745.045 230.117 744.546 229.837 744.207 229.277ZM744.188 227.261V227.959C744.188 228.372 744.321 228.724 744.588 229.014C744.858 229.3 745.2 229.443 745.613 229.443C746.098 229.443 746.478 229.258 746.751 228.887C747.028 228.516 747.166 228 747.166 227.339C747.166 226.782 747.037 226.346 746.78 226.03C746.523 225.715 746.175 225.557 745.735 225.557C745.27 225.557 744.896 225.719 744.612 226.045C744.329 226.367 744.188 226.772 744.188 227.261ZM753.284 227.7H749.754C749.767 228.257 749.917 228.687 750.203 228.989C750.49 229.292 750.883 229.443 751.385 229.443C751.948 229.443 752.465 229.258 752.938 228.887V229.639C752.498 229.958 751.917 230.117 751.194 230.117C750.488 230.117 749.933 229.891 749.529 229.438C749.126 228.983 748.924 228.343 748.924 227.52C748.924 226.742 749.144 226.108 749.583 225.62C750.026 225.129 750.574 224.883 751.229 224.883C751.883 224.883 752.389 225.094 752.747 225.518C753.105 225.941 753.284 226.528 753.284 227.28V227.7ZM752.464 227.021C752.461 226.559 752.348 226.2 752.127 225.942C751.909 225.685 751.604 225.557 751.214 225.557C750.836 225.557 750.516 225.692 750.252 225.962C749.988 226.232 749.826 226.585 749.764 227.021H752.464ZM758.519 227.7H754.988C755.001 228.257 755.151 228.687 755.438 228.989C755.724 229.292 756.118 229.443 756.619 229.443C757.182 229.443 757.7 229.258 758.172 228.887V229.639C757.732 229.958 757.151 230.117 756.429 230.117C755.722 230.117 755.167 229.891 754.764 229.438C754.36 228.983 754.158 228.343 754.158 227.52C754.158 226.742 754.378 226.108 754.817 225.62C755.26 225.129 755.809 224.883 756.463 224.883C757.117 224.883 757.623 225.094 757.981 225.518C758.34 225.941 758.519 226.528 758.519 227.28V227.7ZM757.698 227.021C757.695 226.559 757.583 226.2 757.361 225.942C757.143 225.685 756.839 225.557 756.448 225.557C756.071 225.557 755.75 225.692 755.486 225.962C755.223 226.232 755.06 226.585 754.998 227.021H757.698ZM763.885 230H763.084V227.148C763.084 226.087 762.697 225.557 761.922 225.557C761.521 225.557 761.189 225.708 760.926 226.011C760.665 226.31 760.535 226.689 760.535 227.148V230H759.734V225H760.535V225.83H760.555C760.932 225.199 761.479 224.883 762.195 224.883C762.742 224.883 763.16 225.06 763.45 225.415C763.74 225.767 763.885 226.276 763.885 226.943V230ZM767.84 229.819V228.96C768.276 229.282 768.756 229.443 769.28 229.443C769.983 229.443 770.335 229.209 770.335 228.74C770.335 228.607 770.304 228.494 770.242 228.403C770.184 228.309 770.102 228.226 769.998 228.154C769.897 228.083 769.777 228.019 769.637 227.964C769.5 227.905 769.352 227.845 769.192 227.783C768.971 227.695 768.776 227.607 768.606 227.52C768.44 227.428 768.3 227.327 768.187 227.217C768.076 227.103 767.991 226.974 767.933 226.831C767.877 226.688 767.85 226.52 767.85 226.328C767.85 226.094 767.903 225.887 768.011 225.708C768.118 225.526 768.261 225.374 768.44 225.254C768.619 225.13 768.823 225.037 769.051 224.976C769.282 224.914 769.52 224.883 769.764 224.883C770.197 224.883 770.584 224.958 770.926 225.107V225.918C770.558 225.677 770.135 225.557 769.656 225.557C769.507 225.557 769.371 225.575 769.251 225.61C769.131 225.643 769.026 225.69 768.938 225.752C768.854 225.814 768.787 225.889 768.738 225.977C768.693 226.061 768.67 226.156 768.67 226.26C768.67 226.39 768.693 226.499 768.738 226.587C768.787 226.675 768.857 226.753 768.948 226.821C769.039 226.89 769.15 226.951 769.28 227.007C769.41 227.062 769.559 227.122 769.725 227.188C769.946 227.272 770.145 227.36 770.32 227.451C770.496 227.539 770.646 227.64 770.77 227.754C770.893 227.865 770.988 227.993 771.053 228.14C771.121 228.286 771.155 228.46 771.155 228.662C771.155 228.91 771.1 229.124 770.989 229.307C770.882 229.489 770.737 229.64 770.555 229.761C770.372 229.881 770.162 229.971 769.925 230.029C769.687 230.088 769.438 230.117 769.178 230.117C768.663 230.117 768.217 230.018 767.84 229.819ZM776.434 230H775.633V229.209H775.613C775.281 229.814 774.767 230.117 774.07 230.117C772.879 230.117 772.283 229.408 772.283 227.988V225H773.079V227.861C773.079 228.916 773.483 229.443 774.29 229.443C774.681 229.443 775.001 229.3 775.252 229.014C775.506 228.724 775.633 228.346 775.633 227.881V225H776.434V230ZM781.463 229.771C781.079 230.002 780.623 230.117 780.096 230.117C779.383 230.117 778.807 229.886 778.367 229.424C777.931 228.958 777.713 228.356 777.713 227.617C777.713 226.794 777.949 226.133 778.421 225.635C778.893 225.133 779.523 224.883 780.311 224.883C780.75 224.883 781.137 224.964 781.473 225.127V225.947C781.102 225.687 780.704 225.557 780.281 225.557C779.77 225.557 779.35 225.741 779.021 226.108C778.696 226.473 778.533 226.953 778.533 227.549C778.533 228.135 778.686 228.597 778.992 228.936C779.301 229.274 779.715 229.443 780.232 229.443C780.669 229.443 781.079 229.299 781.463 229.009V229.771ZM786.082 229.771C785.698 230.002 785.242 230.117 784.715 230.117C784.002 230.117 783.426 229.886 782.986 229.424C782.55 228.958 782.332 228.356 782.332 227.617C782.332 226.794 782.568 226.133 783.04 225.635C783.512 225.133 784.142 224.883 784.93 224.883C785.369 224.883 785.757 224.964 786.092 225.127V225.947C785.721 225.687 785.324 225.557 784.9 225.557C784.389 225.557 783.969 225.741 783.641 226.108C783.315 226.473 783.152 226.953 783.152 227.549C783.152 228.135 783.305 228.597 783.611 228.936C783.921 229.274 784.334 229.443 784.852 229.443C785.288 229.443 785.698 229.299 786.082 229.009V229.771ZM791.312 227.7H787.781C787.794 228.257 787.944 228.687 788.23 228.989C788.517 229.292 788.911 229.443 789.412 229.443C789.975 229.443 790.493 229.258 790.965 228.887V229.639C790.525 229.958 789.944 230.117 789.222 230.117C788.515 230.117 787.96 229.891 787.557 229.438C787.153 228.983 786.951 228.343 786.951 227.52C786.951 226.742 787.171 226.108 787.61 225.62C788.053 225.129 788.602 224.883 789.256 224.883C789.91 224.883 790.416 225.094 790.774 225.518C791.132 225.941 791.312 226.528 791.312 227.28V227.7ZM790.491 227.021C790.488 226.559 790.376 226.2 790.154 225.942C789.936 225.685 789.632 225.557 789.241 225.557C788.864 225.557 788.543 225.692 788.279 225.962C788.016 226.232 787.853 226.585 787.791 227.021H790.491ZM792.225 229.819V228.96C792.661 229.282 793.141 229.443 793.665 229.443C794.368 229.443 794.72 229.209 794.72 228.74C794.72 228.607 794.689 228.494 794.627 228.403C794.568 228.309 794.487 228.226 794.383 228.154C794.282 228.083 794.161 228.019 794.021 227.964C793.885 227.905 793.737 227.845 793.577 227.783C793.356 227.695 793.16 227.607 792.991 227.52C792.825 227.428 792.685 227.327 792.571 227.217C792.461 227.103 792.376 226.974 792.317 226.831C792.262 226.688 792.234 226.52 792.234 226.328C792.234 226.094 792.288 225.887 792.396 225.708C792.503 225.526 792.646 225.374 792.825 225.254C793.004 225.13 793.208 225.037 793.436 224.976C793.667 224.914 793.904 224.883 794.148 224.883C794.581 224.883 794.969 224.958 795.311 225.107V225.918C794.943 225.677 794.52 225.557 794.041 225.557C793.891 225.557 793.756 225.575 793.636 225.61C793.515 225.643 793.411 225.69 793.323 225.752C793.239 225.814 793.172 225.889 793.123 225.977C793.077 226.061 793.055 226.156 793.055 226.26C793.055 226.39 793.077 226.499 793.123 226.587C793.172 226.675 793.242 226.753 793.333 226.821C793.424 226.89 793.535 226.951 793.665 227.007C793.795 227.062 793.943 227.122 794.109 227.188C794.331 227.272 794.529 227.36 794.705 227.451C794.881 227.539 795.031 227.64 795.154 227.754C795.278 227.865 795.372 227.993 795.438 228.14C795.506 228.286 795.54 228.46 795.54 228.662C795.54 228.91 795.485 229.124 795.374 229.307C795.267 229.489 795.122 229.64 794.939 229.761C794.757 229.881 794.547 229.971 794.31 230.029C794.072 230.088 793.823 230.117 793.562 230.117C793.048 230.117 792.602 230.018 792.225 229.819ZM796.473 229.819V228.96C796.909 229.282 797.389 229.443 797.913 229.443C798.616 229.443 798.968 229.209 798.968 228.74C798.968 228.607 798.937 228.494 798.875 228.403C798.816 228.309 798.735 228.226 798.631 228.154C798.53 228.083 798.41 228.019 798.27 227.964C798.133 227.905 797.985 227.845 797.825 227.783C797.604 227.695 797.409 227.607 797.239 227.52C797.073 227.428 796.933 227.327 796.819 227.217C796.709 227.103 796.624 226.974 796.565 226.831C796.51 226.688 796.482 226.52 796.482 226.328C796.482 226.094 796.536 225.887 796.644 225.708C796.751 225.526 796.894 225.374 797.073 225.254C797.252 225.13 797.456 225.037 797.684 224.976C797.915 224.914 798.152 224.883 798.396 224.883C798.829 224.883 799.217 224.958 799.559 225.107V225.918C799.191 225.677 798.768 225.557 798.289 225.557C798.139 225.557 798.004 225.575 797.884 225.61C797.763 225.643 797.659 225.69 797.571 225.752C797.487 225.814 797.42 225.889 797.371 225.977C797.326 226.061 797.303 226.156 797.303 226.26C797.303 226.39 797.326 226.499 797.371 226.587C797.42 226.675 797.49 226.753 797.581 226.821C797.672 226.89 797.783 226.951 797.913 227.007C798.043 227.062 798.191 227.122 798.357 227.188C798.579 227.272 798.777 227.36 798.953 227.451C799.129 227.539 799.279 227.64 799.402 227.754C799.526 227.865 799.62 227.993 799.686 228.14C799.754 228.286 799.788 228.46 799.788 228.662C799.788 228.91 799.733 229.124 799.622 229.307C799.515 229.489 799.37 229.64 799.188 229.761C799.005 229.881 798.795 229.971 798.558 230.029C798.32 230.088 798.071 230.117 797.811 230.117C797.296 230.117 796.85 230.018 796.473 229.819ZM803.494 223.301C803.338 223.213 803.16 223.169 802.962 223.169C802.402 223.169 802.122 223.522 802.122 224.229V225H803.294V225.684H802.122V230H801.326V225.684H800.472V225H801.326V224.189C801.326 223.665 801.478 223.252 801.78 222.949C802.083 222.643 802.461 222.49 802.913 222.49C803.157 222.49 803.351 222.52 803.494 222.578V223.301ZM808.201 230H807.4V229.209H807.381C807.049 229.814 806.535 230.117 805.838 230.117C804.646 230.117 804.051 229.408 804.051 227.988V225H804.847V227.861C804.847 228.916 805.25 229.443 806.058 229.443C806.448 229.443 806.769 229.3 807.02 229.014C807.273 228.724 807.4 228.346 807.4 227.881V225H808.201V230ZM810.623 230H809.822V222.598H810.623V230ZM813.045 230H812.244V222.598H813.045V230ZM818.646 225L816.346 230.801C815.936 231.836 815.359 232.354 814.617 232.354C814.409 232.354 814.235 232.332 814.095 232.29V231.572C814.267 231.631 814.425 231.66 814.568 231.66C814.972 231.66 815.275 231.419 815.477 230.938L815.877 229.99L813.924 225H814.812L816.165 228.848C816.181 228.896 816.215 229.023 816.268 229.229H816.297C816.313 229.15 816.346 229.027 816.395 228.857L817.815 225H818.646ZM825.833 230H825.032V229.219H825.013C824.664 229.818 824.152 230.117 823.475 230.117C822.977 230.117 822.586 229.985 822.303 229.722C822.023 229.458 821.883 229.108 821.883 228.672C821.883 227.738 822.433 227.194 823.533 227.041L825.032 226.831C825.032 225.981 824.689 225.557 824.002 225.557C823.4 225.557 822.856 225.762 822.371 226.172V225.352C822.863 225.039 823.429 224.883 824.07 224.883C825.245 224.883 825.833 225.505 825.833 226.748V230ZM825.032 227.471L823.826 227.637C823.455 227.689 823.175 227.782 822.986 227.915C822.798 228.045 822.703 228.278 822.703 228.613C822.703 228.857 822.789 229.058 822.962 229.214C823.138 229.367 823.37 229.443 823.66 229.443C824.057 229.443 824.384 229.305 824.642 229.028C824.902 228.748 825.032 228.395 825.032 227.969V227.471ZM831.609 230H830.809V229.15H830.789C830.418 229.795 829.845 230.117 829.07 230.117C828.442 230.117 827.939 229.894 827.562 229.448C827.187 228.999 827 228.389 827 227.617C827 226.79 827.208 226.128 827.625 225.63C828.042 225.132 828.597 224.883 829.29 224.883C829.977 224.883 830.477 225.153 830.789 225.693H830.809V222.598H831.609V230ZM830.809 227.739V227.002C830.809 226.598 830.675 226.257 830.408 225.977C830.141 225.697 829.803 225.557 829.393 225.557C828.904 225.557 828.52 225.736 828.24 226.094C827.96 226.452 827.82 226.947 827.82 227.578C827.82 228.154 827.954 228.61 828.221 228.945C828.491 229.277 828.852 229.443 829.305 229.443C829.751 229.443 830.112 229.282 830.389 228.96C830.669 228.638 830.809 228.231 830.809 227.739ZM837.498 230H836.697V229.15H836.678C836.307 229.795 835.734 230.117 834.959 230.117C834.331 230.117 833.828 229.894 833.45 229.448C833.076 228.999 832.889 228.389 832.889 227.617C832.889 226.79 833.097 226.128 833.514 225.63C833.93 225.132 834.485 224.883 835.179 224.883C835.866 224.883 836.365 225.153 836.678 225.693H836.697V222.598H837.498V230ZM836.697 227.739V227.002C836.697 226.598 836.564 226.257 836.297 225.977C836.03 225.697 835.691 225.557 835.281 225.557C834.793 225.557 834.409 225.736 834.129 226.094C833.849 226.452 833.709 226.947 833.709 227.578C833.709 228.154 833.842 228.61 834.109 228.945C834.38 229.277 834.741 229.443 835.193 229.443C835.639 229.443 836.001 229.282 836.277 228.96C836.557 228.638 836.697 228.231 836.697 227.739ZM843.138 227.7H839.607C839.62 228.257 839.77 228.687 840.057 228.989C840.343 229.292 840.737 229.443 841.238 229.443C841.801 229.443 842.319 229.258 842.791 228.887V229.639C842.352 229.958 841.771 230.117 841.048 230.117C840.341 230.117 839.786 229.891 839.383 229.438C838.979 228.983 838.777 228.343 838.777 227.52C838.777 226.742 838.997 226.108 839.437 225.62C839.879 225.129 840.428 224.883 841.082 224.883C841.736 224.883 842.243 225.094 842.601 225.518C842.959 225.941 843.138 226.528 843.138 227.28V227.7ZM842.317 227.021C842.314 226.559 842.202 226.2 841.98 225.942C841.762 225.685 841.458 225.557 841.067 225.557C840.69 225.557 840.369 225.692 840.105 225.962C839.842 226.232 839.679 226.585 839.617 227.021H842.317ZM848.621 230H847.82V229.15H847.801C847.43 229.795 846.857 230.117 846.082 230.117C845.454 230.117 844.951 229.894 844.573 229.448C844.199 228.999 844.012 228.389 844.012 227.617C844.012 226.79 844.22 226.128 844.637 225.63C845.053 225.132 845.608 224.883 846.302 224.883C846.989 224.883 847.488 225.153 847.801 225.693H847.82V222.598H848.621V230ZM847.82 227.739V227.002C847.82 226.598 847.687 226.257 847.42 225.977C847.153 225.697 846.814 225.557 846.404 225.557C845.916 225.557 845.532 225.736 845.252 226.094C844.972 226.452 844.832 226.947 844.832 227.578C844.832 228.154 844.965 228.61 845.232 228.945C845.503 229.277 845.864 229.443 846.316 229.443C846.762 229.443 847.124 229.282 847.4 228.96C847.68 228.638 847.82 228.231 847.82 227.739ZM855.306 229.951C855.117 230.055 854.868 230.107 854.559 230.107C853.683 230.107 853.245 229.619 853.245 228.643V225.684H852.386V225H853.245V223.779L854.046 223.521V225H855.306V225.684H854.046V228.501C854.046 228.836 854.103 229.076 854.217 229.219C854.331 229.362 854.52 229.434 854.783 229.434C854.985 229.434 855.159 229.378 855.306 229.268V229.951ZM858.465 230.117C857.726 230.117 857.135 229.884 856.692 229.419C856.253 228.95 856.033 228.33 856.033 227.559C856.033 226.719 856.263 226.063 856.722 225.591C857.181 225.119 857.801 224.883 858.582 224.883C859.327 224.883 859.909 225.112 860.325 225.571C860.745 226.03 860.955 226.667 860.955 227.48C860.955 228.278 860.729 228.918 860.276 229.399C859.827 229.878 859.223 230.117 858.465 230.117ZM858.523 225.557C858.009 225.557 857.602 225.732 857.303 226.084C857.003 226.432 856.854 226.914 856.854 227.529C856.854 228.122 857.005 228.589 857.308 228.931C857.61 229.272 858.016 229.443 858.523 229.443C859.041 229.443 859.438 229.276 859.715 228.94C859.995 228.605 860.135 228.128 860.135 227.51C860.135 226.885 859.995 226.403 859.715 226.064C859.438 225.726 859.041 225.557 858.523 225.557ZM770.018 244.951C769.829 245.055 769.58 245.107 769.271 245.107C768.395 245.107 767.957 244.619 767.957 243.643V240.684H767.098V240H767.957V238.779L768.758 238.521V240H770.018V240.684H768.758V243.501C768.758 243.836 768.815 244.076 768.929 244.219C769.043 244.362 769.231 244.434 769.495 244.434C769.697 244.434 769.871 244.378 770.018 244.268V244.951ZM775.237 245H774.437V242.119C774.437 241.077 774.049 240.557 773.274 240.557C772.884 240.557 772.555 240.708 772.288 241.011C772.021 241.31 771.888 241.696 771.888 242.168V245H771.087V237.598H771.888V240.83H771.907C772.291 240.199 772.838 239.883 773.548 239.883C774.674 239.883 775.237 240.562 775.237 241.919V245ZM780.77 242.7H777.239C777.252 243.257 777.402 243.687 777.688 243.989C777.975 244.292 778.369 244.443 778.87 244.443C779.433 244.443 779.951 244.258 780.423 243.887V244.639C779.983 244.958 779.402 245.117 778.68 245.117C777.973 245.117 777.418 244.891 777.015 244.438C776.611 243.983 776.409 243.343 776.409 242.52C776.409 241.742 776.629 241.108 777.068 240.62C777.511 240.129 778.06 239.883 778.714 239.883C779.368 239.883 779.874 240.094 780.232 240.518C780.59 240.941 780.77 241.528 780.77 242.28V242.7ZM779.949 242.021C779.946 241.559 779.834 241.2 779.612 240.942C779.394 240.685 779.09 240.557 778.699 240.557C778.322 240.557 778.001 240.692 777.737 240.962C777.474 241.232 777.311 241.585 777.249 242.021H779.949ZM788.47 245H784.837V237.998H785.657V244.258H788.47V245ZM789.847 238.73C789.703 238.73 789.581 238.682 789.48 238.584C789.38 238.486 789.329 238.363 789.329 238.213C789.329 238.063 789.38 237.939 789.48 237.842C789.581 237.741 789.703 237.69 789.847 237.69C789.993 237.69 790.117 237.741 790.218 237.842C790.322 237.939 790.374 238.063 790.374 238.213C790.374 238.356 790.322 238.478 790.218 238.579C790.117 238.68 789.993 238.73 789.847 238.73ZM790.237 245H789.437V240H790.237V245ZM794.178 244.951C793.989 245.055 793.74 245.107 793.431 245.107C792.555 245.107 792.117 244.619 792.117 243.643V240.684H791.258V240H792.117V238.779L792.918 238.521V240H794.178V240.684H792.918V243.501C792.918 243.836 792.975 244.076 793.089 244.219C793.203 244.362 793.392 244.434 793.655 244.434C793.857 244.434 794.031 244.378 794.178 244.268V244.951ZM798.919 242.354V245H798.099V237.998H800.022C800.771 237.998 801.351 238.18 801.761 238.545C802.174 238.91 802.381 239.424 802.381 240.088C802.381 240.752 802.151 241.296 801.692 241.719C801.237 242.142 800.62 242.354 799.842 242.354H798.919ZM798.919 238.74V241.611H799.778C800.345 241.611 800.776 241.483 801.072 241.226C801.372 240.965 801.521 240.599 801.521 240.127C801.521 239.202 800.975 238.74 799.881 238.74H798.919ZM806.204 240.811C806.064 240.703 805.862 240.649 805.599 240.649C805.257 240.649 804.97 240.811 804.739 241.133C804.511 241.455 804.397 241.895 804.397 242.451V245H803.597V240H804.397V241.03H804.417C804.531 240.679 804.705 240.405 804.939 240.21C805.174 240.011 805.436 239.912 805.726 239.912C805.934 239.912 806.093 239.935 806.204 239.98V240.811ZM809.163 245.117C808.424 245.117 807.833 244.884 807.391 244.419C806.951 243.95 806.731 243.33 806.731 242.559C806.731 241.719 806.961 241.063 807.42 240.591C807.879 240.119 808.499 239.883 809.28 239.883C810.026 239.883 810.607 240.112 811.023 240.571C811.443 241.03 811.653 241.667 811.653 242.48C811.653 243.278 811.427 243.918 810.975 244.399C810.525 244.878 809.922 245.117 809.163 245.117ZM809.222 240.557C808.707 240.557 808.3 240.732 808.001 241.084C807.701 241.432 807.552 241.914 807.552 242.529C807.552 243.122 807.703 243.589 808.006 243.931C808.309 244.272 808.714 244.443 809.222 244.443C809.739 244.443 810.136 244.276 810.413 243.94C810.693 243.605 810.833 243.128 810.833 242.51C810.833 241.885 810.693 241.403 810.413 241.064C810.136 240.726 809.739 240.557 809.222 240.557ZM815.252 244.951C815.063 245.055 814.814 245.107 814.505 245.107C813.629 245.107 813.191 244.619 813.191 243.643V240.684H812.332V240H813.191V238.779L813.992 238.521V240H815.252V240.684H813.992V243.501C813.992 243.836 814.049 244.076 814.163 244.219C814.277 244.362 814.466 244.434 814.729 244.434C814.931 244.434 815.105 244.378 815.252 244.268V244.951ZM818.411 245.117C817.672 245.117 817.081 244.884 816.639 244.419C816.199 243.95 815.979 243.33 815.979 242.559C815.979 241.719 816.209 241.063 816.668 240.591C817.127 240.119 817.747 239.883 818.528 239.883C819.274 239.883 819.855 240.112 820.271 240.571C820.691 241.03 820.901 241.667 820.901 242.48C820.901 243.278 820.675 243.918 820.223 244.399C819.773 244.878 819.17 245.117 818.411 245.117ZM818.47 240.557C817.955 240.557 817.549 240.732 817.249 241.084C816.95 241.432 816.8 241.914 816.8 242.529C816.8 243.122 816.951 243.589 817.254 243.931C817.557 244.272 817.962 244.443 818.47 244.443C818.987 244.443 819.384 244.276 819.661 243.94C819.941 243.605 820.081 243.128 820.081 242.51C820.081 241.885 819.941 241.403 819.661 241.064C819.384 240.726 818.987 240.557 818.47 240.557ZM825.589 244.771C825.205 245.002 824.749 245.117 824.222 245.117C823.509 245.117 822.933 244.886 822.493 244.424C822.057 243.958 821.839 243.356 821.839 242.617C821.839 241.794 822.075 241.133 822.547 240.635C823.019 240.133 823.649 239.883 824.437 239.883C824.876 239.883 825.263 239.964 825.599 240.127V240.947C825.228 240.687 824.83 240.557 824.407 240.557C823.896 240.557 823.476 240.741 823.147 241.108C822.822 241.473 822.659 241.953 822.659 242.549C822.659 243.135 822.812 243.597 823.118 243.936C823.427 244.274 823.841 244.443 824.358 244.443C824.795 244.443 825.205 244.299 825.589 244.009V244.771ZM828.89 245.117C828.151 245.117 827.56 244.884 827.117 244.419C826.678 243.95 826.458 243.33 826.458 242.559C826.458 241.719 826.688 241.063 827.146 240.591C827.605 240.119 828.226 239.883 829.007 239.883C829.752 239.883 830.333 240.112 830.75 240.571C831.17 241.03 831.38 241.667 831.38 242.48C831.38 243.278 831.154 243.918 830.701 244.399C830.252 244.878 829.648 245.117 828.89 245.117ZM828.948 240.557C828.434 240.557 828.027 240.732 827.728 241.084C827.428 241.432 827.278 241.914 827.278 242.529C827.278 243.122 827.43 243.589 827.732 243.931C828.035 244.272 828.44 244.443 828.948 244.443C829.466 244.443 829.863 244.276 830.14 243.94C830.42 243.605 830.56 243.128 830.56 242.51C830.56 241.885 830.42 241.403 830.14 241.064C829.863 240.726 829.466 240.557 828.948 240.557ZM833.46 245H832.659V237.598H833.46V245ZM836.102 237.998L836.009 243.027H835.35L835.262 237.998H836.102ZM835.691 245.088C835.542 245.088 835.413 245.036 835.306 244.932C835.201 244.827 835.149 244.701 835.149 244.551C835.149 244.401 835.201 244.274 835.306 244.17C835.413 244.062 835.542 244.009 835.691 244.009C835.838 244.009 835.965 244.062 836.072 244.17C836.18 244.274 836.233 244.401 836.233 244.551C836.233 244.701 836.18 244.827 836.072 244.932C835.965 245.036 835.838 245.088 835.691 245.088Z" fill="#2C0C72"/>
            <g clip-path="url(#clip1_174_3108)">
                <path opacity="0.39" d="M819.42 280.143C818.088 277.493 817.412 274.563 817.449 271.597C817.51 270.582 817.892 269.613 818.541 268.83C818.541 268.83 818.252 268.865 817.821 268.948C816.835 269.136 815.082 269.538 814.227 270.299C813.134 271.207 812.308 272.394 811.837 273.734C811.208 272.197 810.435 270.723 809.529 269.331C808.416 267.991 807.166 266.77 805.799 265.69C806.261 267.42 806.447 269.213 806.348 271.001C806.183 272.6 805.873 274.18 805.422 275.723C804.436 274.657 803.69 273.392 803.234 272.014C802.778 270.635 802.623 269.175 802.778 267.732C803.303 263.601 806.673 261.11 806.909 260.957C806.62 261.016 801.999 262.049 799.207 266.068C796.87 269.396 796.605 272.843 797.697 277.41C798.659 281.447 797.337 283.79 797.337 283.79C797.337 283.79 793.206 284.669 791.553 282.073C789.901 279.476 790.55 275.05 790.55 275.05C790.55 275.05 783.002 280.81 783.002 288.393C783.002 296.354 789.334 306.629 802.058 306.629C816.694 306.629 820.996 294.141 821.249 290.329C821.468 287.048 821.379 284.209 819.42 280.143ZM809.57 280.101C809.57 280.101 809.765 280.385 810.072 280.798C810.315 281.141 810.524 281.507 810.698 281.89C810.698 281.89 810.792 275.05 813.2 272.034C814.435 270.615 816.026 269.552 817.809 268.954C815.389 270.187 813.932 271.592 813.542 274.548C813.229 276.938 814.014 281.494 813.696 284.356C813.436 286.717 812.191 288.487 811.187 289.007C810.184 289.526 809.553 289.131 809.517 288.358C809.47 287.461 810.107 285.891 810.031 284.628C809.89 283.417 809.536 282.24 808.986 281.152L809.57 280.101ZM802.495 302.787C788.089 302.645 786.985 289.213 788.201 286.139C788.201 286.139 789.128 293.327 797.23 291.491C805.333 289.656 801.202 277.528 801.072 277.139C802.129 278.159 803.069 279.293 803.876 280.52C805.15 282.468 805.51 285.773 805.091 288.665C804.672 291.556 804.944 295.498 810.119 294.035C816.558 292.211 816.021 282.155 816.021 282.155C818.948 285.549 819.202 302.899 802.495 302.787Z" fill="#C4C4C4"/>
                <path opacity="0.39" d="M802.494 302.787C788.089 302.645 786.985 289.213 788.201 286.138C788.201 286.138 789.127 293.326 797.23 291.491C805.333 289.656 801.202 277.528 801.072 277.139C802.129 278.159 803.069 279.293 803.875 280.52C805.15 282.468 805.51 285.773 805.091 288.664C804.672 291.556 804.943 295.498 810.119 294.035C816.557 292.211 816.02 282.155 816.02 282.155C818.948 285.548 819.201 302.899 802.494 302.787Z" fill="#C4C4C4"/>
                <path opacity="0.39" d="M813.542 274.548C813.229 276.938 814.014 281.494 813.695 284.356C813.436 286.717 812.19 288.487 811.187 289.006C810.184 289.526 809.552 289.13 809.517 288.357C809.47 287.46 810.107 285.89 810.03 284.627C809.889 283.416 809.536 282.24 808.986 281.151L809.576 280.101C809.576 280.101 809.771 280.384 810.078 280.797C810.32 281.141 810.53 281.506 810.703 281.889C810.703 281.889 810.792 275.049 813.199 272.034C814.434 270.615 816.025 269.551 817.809 268.953C815.389 270.187 813.931 271.591 813.542 274.548Z" fill="#C4C4C4"/>
                <path fill-rule="evenodd" clip-rule="evenodd" d="M801.649 294.441L797.535 290.989L796.767 291.904L801.795 296.123L808.699 287.895L807.785 287.128L801.649 294.441Z" fill="#42974A"/>
            </g>
        </g>
        <rect x="716.778" y="181.778" width="166.444" height="148.444" rx="2.33422" stroke="#5E36B7" stroke-width="1.55614"/>
    </g>
    <rect x="341.339" y="31.7781" width="76.2511" height="269.213" rx="2.33422" fill="#5E36B7" stroke="#2C0C72" stroke-width="1.55614"/>
    <path d="M363.593 164.991C363.593 165.812 363.518 166.539 363.367 167.173C363.221 167.806 363.007 168.342 362.724 168.78C362.446 169.213 362.102 169.543 361.692 169.771C361.286 169.995 360.823 170.106 360.303 170.106C359.811 170.106 359.371 169.999 358.984 169.785C358.601 169.566 358.277 169.249 358.013 168.834C357.748 168.419 357.547 167.911 357.411 167.309C357.274 166.703 357.206 166.01 357.206 165.23C357.206 164.373 357.276 163.617 357.418 162.96C357.563 162.304 357.775 161.754 358.054 161.312C358.332 160.865 358.676 160.53 359.086 160.307C359.501 160.079 359.975 159.965 360.509 159.965C362.565 159.965 363.593 161.64 363.593 164.991ZM362.444 165.1C362.444 162.31 361.781 160.915 360.454 160.915C359.054 160.915 358.354 162.335 358.354 165.176C358.354 167.824 359.041 169.149 360.413 169.149C361.767 169.149 362.444 167.799 362.444 165.1ZM370.418 162.933L368.065 166.475L370.377 169.935H369.07L367.696 167.665C367.609 167.524 367.507 167.346 367.388 167.132H367.361C367.338 167.173 367.231 167.35 367.039 167.665L365.637 169.935H364.345L366.732 166.502L364.448 162.933H365.754L367.108 165.326C367.208 165.504 367.306 165.686 367.402 165.873H367.429L369.18 162.933H370.418ZM376.743 169.935H375.622V168.841H375.594C375.107 169.68 374.388 170.099 373.44 170.099C372.743 170.099 372.196 169.915 371.799 169.546C371.407 169.176 371.211 168.686 371.211 168.075C371.211 166.767 371.981 166.005 373.522 165.791L375.622 165.497C375.622 164.307 375.141 163.712 374.179 163.712C373.335 163.712 372.574 163.999 371.895 164.574V163.425C372.583 162.987 373.376 162.769 374.275 162.769C375.92 162.769 376.743 163.639 376.743 165.381V169.935ZM375.622 166.393L373.933 166.625C373.413 166.698 373.021 166.828 372.756 167.015C372.492 167.198 372.36 167.524 372.36 167.993C372.36 168.335 372.481 168.615 372.722 168.834C372.968 169.049 373.294 169.156 373.7 169.156C374.256 169.156 374.714 168.962 375.075 168.574C375.439 168.182 375.622 167.688 375.622 167.09V166.393ZM380.005 168.923H379.978V169.935H378.856V159.568H379.978V164.164H380.005C380.557 163.234 381.364 162.769 382.426 162.769C383.324 162.769 384.026 163.083 384.532 163.712C385.043 164.337 385.298 165.176 385.298 166.229C385.298 167.4 385.013 168.34 384.443 169.046C383.874 169.748 383.094 170.099 382.105 170.099C381.179 170.099 380.479 169.707 380.005 168.923ZM379.978 166.099V167.077C379.978 167.656 380.165 168.148 380.539 168.554C380.917 168.955 381.396 169.156 381.975 169.156C382.654 169.156 383.185 168.896 383.568 168.376C383.956 167.856 384.149 167.134 384.149 166.208C384.149 165.429 383.969 164.818 383.609 164.376C383.249 163.933 382.761 163.712 382.146 163.712C381.494 163.712 380.969 163.94 380.573 164.396C380.176 164.847 379.978 165.415 379.978 166.099ZM391.863 169.614C391.325 169.938 390.687 170.099 389.948 170.099C388.95 170.099 388.143 169.776 387.528 169.128C386.917 168.476 386.611 167.633 386.611 166.598C386.611 165.445 386.942 164.519 387.603 163.822C388.264 163.12 389.146 162.769 390.249 162.769C390.865 162.769 391.407 162.883 391.877 163.11V164.259C391.357 163.895 390.801 163.712 390.208 163.712C389.493 163.712 388.904 163.97 388.444 164.485C387.988 164.996 387.76 165.668 387.76 166.502C387.76 167.323 387.974 167.97 388.403 168.445C388.836 168.919 389.415 169.156 390.14 169.156C390.751 169.156 391.325 168.953 391.863 168.547V169.614ZM393.949 170.086C393.739 170.086 393.559 170.011 393.409 169.86C393.263 169.71 393.19 169.53 393.19 169.32C393.19 169.11 393.263 168.93 393.409 168.78C393.559 168.625 393.739 168.547 393.949 168.547C394.163 168.547 394.346 168.625 394.496 168.78C394.646 168.93 394.722 169.11 394.722 169.32C394.722 169.53 394.646 169.71 394.496 169.86C394.346 170.011 394.163 170.086 393.949 170.086ZM396.985 170.086C396.776 170.086 396.595 170.011 396.445 169.86C396.299 169.71 396.226 169.53 396.226 169.32C396.226 169.11 396.299 168.93 396.445 168.78C396.595 168.625 396.776 168.547 396.985 168.547C397.2 168.547 397.382 168.625 397.532 168.78C397.683 168.93 397.758 169.11 397.758 169.32C397.758 169.53 397.683 169.71 397.532 169.86C397.382 170.011 397.2 170.086 396.985 170.086ZM400.022 170.086C399.812 170.086 399.632 170.011 399.481 169.86C399.335 169.71 399.262 169.53 399.262 169.32C399.262 169.11 399.335 168.93 399.481 168.78C399.632 168.625 399.812 168.547 400.022 168.547C400.236 168.547 400.418 168.625 400.569 168.78C400.719 168.93 400.794 169.11 400.794 169.32C400.794 169.53 400.719 169.71 400.569 169.86C400.418 170.011 400.236 170.086 400.022 170.086Z" fill="white"/>
    <rect x="551.418" y="32.259" width="76.2511" height="76.2511" rx="2.33422" fill="#5E36B7" stroke="#2C0C72" stroke-width="1.55614"/>
    <path d="M588.655 68.9424L588.375 70.231H585.202L584.436 73.8782H587.853L587.524 75.1669H584.181L583.111 79.9934H581.579L582.625 75.1669H579.586L578.564 79.9934H577.045L578.066 75.1669H574.881L575.124 73.8782H578.346L579.087 70.231H575.72L575.975 68.9424H579.343L580.364 64.0551H581.896L580.874 68.9424H583.938L584.984 64.0551H586.479L585.458 68.9424H588.655ZM583.695 70.231H580.631L579.829 73.8782H582.917L583.695 70.231ZM603.366 68.9424L603.086 70.231H599.913L599.147 73.8782H602.563L602.235 75.1669H598.892L597.822 79.9934H596.29L597.335 75.1669H594.296L593.275 79.9934H591.755L592.776 75.1669H589.591L589.834 73.8782H593.056L593.798 70.231H590.43L590.685 68.9424H594.053L595.074 64.0551H596.606L595.585 68.9424H598.648L599.694 64.0551H601.189L600.168 68.9424H603.366ZM598.405 70.231H595.342L594.539 73.8782H597.627L598.405 70.231Z" fill="white"/>
    <rect x="445.6" y="130.778" width="182.069" height="76.2511" rx="1.55615" fill="#5E36B7" stroke="#2C0C72" stroke-width="1.55614" stroke-dasharray="6.22 7.78"/>
    <path d="M479.213 160.527H476.757V162.977H475.948V160.527H473.499V159.712H475.948V157.263H476.757V159.712H479.213V160.527ZM491.917 163.749H490.786L489.863 161.305H486.167L485.297 163.749H484.161L487.504 155.032H488.562L491.917 163.749ZM489.528 160.387L488.16 156.673C488.116 156.551 488.071 156.357 488.027 156.089H488.002C487.962 156.337 487.915 156.531 487.863 156.673L486.507 160.387H489.528ZM498.385 163.749H497.388V162.691H497.364C496.902 163.493 496.188 163.894 495.224 163.894C494.442 163.894 493.816 163.617 493.346 163.062C492.88 162.502 492.647 161.743 492.647 160.782C492.647 159.753 492.906 158.928 493.425 158.308C493.943 157.688 494.634 157.378 495.497 157.378C496.353 157.378 496.975 157.714 497.364 158.387H497.388V154.533H498.385V163.749ZM497.388 160.934V160.016C497.388 159.514 497.222 159.088 496.889 158.74C496.557 158.391 496.136 158.217 495.625 158.217C495.017 158.217 494.539 158.44 494.191 158.886C493.842 159.331 493.668 159.947 493.668 160.734C493.668 161.451 493.834 162.018 494.166 162.436C494.503 162.849 494.952 163.056 495.516 163.056C496.071 163.056 496.521 162.855 496.865 162.454C497.214 162.053 497.388 161.546 497.388 160.934ZM505.716 163.749H504.719V162.691H504.695C504.233 163.493 503.519 163.894 502.555 163.894C501.773 163.894 501.147 163.617 500.677 163.062C500.21 162.502 499.977 161.743 499.977 160.782C499.977 159.753 500.237 158.928 500.756 158.308C501.274 157.688 501.965 157.378 502.828 157.378C503.683 157.378 504.305 157.714 504.695 158.387H504.719V154.533H505.716V163.749ZM504.719 160.934V160.016C504.719 159.514 504.553 159.088 504.22 158.74C503.888 158.391 503.467 158.217 502.956 158.217C502.348 158.217 501.87 158.44 501.521 158.886C501.173 159.331 500.999 159.947 500.999 160.734C500.999 161.451 501.165 162.018 501.497 162.436C501.833 162.849 502.283 163.056 502.847 163.056C503.402 163.056 503.852 162.855 504.196 162.454C504.545 162.053 504.719 161.546 504.719 160.934ZM518.311 163.749H517.059L512.573 156.801C512.459 156.626 512.366 156.444 512.293 156.254H512.256C512.289 156.44 512.305 156.839 512.305 157.451V163.749H511.284V155.032H512.609L516.973 161.87C517.156 162.154 517.273 162.348 517.326 162.454H517.35C517.31 162.203 517.29 161.775 517.29 161.171V155.032H518.311V163.749ZM525.022 155.956H521.618V158.971H524.766V159.889H521.618V163.749H520.596V155.032H525.022V155.956ZM531.83 155.956H529.313V163.749H528.292V155.956H525.781V155.032H531.83V155.956ZM539.088 163.894C538.168 163.894 537.432 163.605 536.881 163.025C536.334 162.442 536.061 161.67 536.061 160.709C536.061 159.664 536.346 158.847 536.918 158.259C537.489 157.672 538.261 157.378 539.234 157.378C540.162 157.378 540.885 157.664 541.404 158.235C541.927 158.807 542.188 159.599 542.188 160.612C542.188 161.605 541.906 162.401 541.343 163.001C540.784 163.597 540.032 163.894 539.088 163.894ZM539.161 158.217C538.52 158.217 538.014 158.436 537.641 158.873C537.268 159.307 537.082 159.907 537.082 160.673C537.082 161.41 537.27 161.992 537.647 162.417C538.024 162.843 538.529 163.056 539.161 163.056C539.805 163.056 540.299 162.847 540.644 162.429C540.992 162.012 541.167 161.418 541.167 160.648C541.167 159.87 540.992 159.271 540.644 158.849C540.299 158.428 539.805 158.217 539.161 158.217ZM551.622 157.524L549.756 163.749H548.722L547.44 159.293C547.391 159.123 547.359 158.93 547.343 158.715H547.318C547.306 158.861 547.264 159.05 547.191 159.281L545.799 163.749H544.802L542.917 157.524H543.963L545.252 162.205C545.292 162.346 545.32 162.533 545.337 162.764H545.385C545.397 162.585 545.434 162.395 545.495 162.192L546.929 157.524H547.841L549.13 162.217C549.17 162.367 549.201 162.553 549.221 162.776H549.27C549.278 162.618 549.312 162.431 549.373 162.217L550.637 157.524H551.622ZM557.944 163.749H556.947V160.199C556.947 158.877 556.465 158.217 555.5 158.217C555.002 158.217 554.588 158.405 554.26 158.782C553.936 159.155 553.774 159.627 553.774 160.199V163.749H552.777V157.524H553.774V158.557H553.798C554.268 157.771 554.949 157.378 555.841 157.378C556.521 157.378 557.042 157.599 557.403 158.041C557.764 158.478 557.944 159.113 557.944 159.943V163.749ZM564.831 160.885H560.436C560.452 161.578 560.639 162.113 560.995 162.49C561.352 162.867 561.842 163.056 562.466 163.056C563.167 163.056 563.812 162.825 564.399 162.363V163.299C563.852 163.696 563.129 163.894 562.229 163.894C561.35 163.894 560.659 163.613 560.156 163.049C559.654 162.482 559.403 161.686 559.403 160.661C559.403 159.692 559.676 158.904 560.223 158.296C560.774 157.684 561.457 157.378 562.272 157.378C563.086 157.378 563.717 157.641 564.162 158.168C564.608 158.695 564.831 159.427 564.831 160.363V160.885ZM563.81 160.041C563.806 159.465 563.666 159.017 563.39 158.697C563.119 158.377 562.74 158.217 562.254 158.217C561.784 158.217 561.384 158.385 561.056 158.721C560.728 159.058 560.525 159.498 560.448 160.041H563.81ZM569.591 158.533C569.416 158.399 569.165 158.332 568.837 158.332C568.411 158.332 568.055 158.533 567.767 158.934C567.483 159.335 567.342 159.882 567.342 160.575V163.749H566.345V157.524H567.342V158.807H567.366C567.508 158.369 567.724 158.028 568.016 157.785C568.308 157.538 568.634 157.415 568.995 157.415C569.254 157.415 569.453 157.443 569.591 157.5V158.533ZM570.296 163.524V162.454C570.839 162.855 571.437 163.056 572.089 163.056C572.964 163.056 573.402 162.764 573.402 162.18C573.402 162.014 573.363 161.874 573.286 161.761C573.214 161.643 573.112 161.54 572.983 161.451C572.857 161.362 572.707 161.283 572.533 161.214C572.363 161.141 572.178 161.066 571.98 160.989C571.704 160.879 571.461 160.77 571.25 160.661C571.043 160.547 570.869 160.421 570.727 160.284C570.59 160.142 570.484 159.982 570.411 159.803C570.342 159.625 570.308 159.416 570.308 159.177C570.308 158.886 570.375 158.628 570.509 158.405C570.642 158.178 570.821 157.99 571.043 157.84C571.266 157.686 571.52 157.571 571.803 157.494C572.091 157.417 572.387 157.378 572.691 157.378C573.23 157.378 573.712 157.471 574.137 157.658V158.667C573.68 158.367 573.153 158.217 572.557 158.217C572.371 158.217 572.202 158.239 572.052 158.284C571.903 158.324 571.773 158.383 571.663 158.46C571.558 158.537 571.475 158.63 571.414 158.74C571.358 158.845 571.329 158.963 571.329 159.092C571.329 159.254 571.358 159.39 571.414 159.5C571.475 159.609 571.562 159.706 571.676 159.791C571.789 159.876 571.927 159.953 572.089 160.022C572.251 160.091 572.435 160.166 572.642 160.247C572.918 160.353 573.165 160.462 573.384 160.575C573.603 160.685 573.789 160.811 573.943 160.952C574.097 161.09 574.214 161.25 574.296 161.433C574.381 161.615 574.423 161.832 574.423 162.083C574.423 162.391 574.354 162.658 574.217 162.885C574.083 163.112 573.902 163.301 573.676 163.451C573.449 163.601 573.187 163.712 572.891 163.785C572.596 163.858 572.286 163.894 571.961 163.894C571.321 163.894 570.766 163.771 570.296 163.524ZM581.128 163.749H580.131V160.162C580.131 158.865 579.649 158.217 578.684 158.217C578.198 158.217 577.789 158.405 577.456 158.782C577.124 159.155 576.958 159.635 576.958 160.223V163.749H575.961V154.533H576.958V158.557H576.982C577.461 157.771 578.141 157.378 579.025 157.378C580.427 157.378 581.128 158.223 581.128 159.913V163.749ZM583.523 155.943C583.345 155.943 583.193 155.883 583.067 155.761C582.941 155.64 582.879 155.486 582.879 155.299C582.879 155.113 582.941 154.959 583.067 154.837C583.193 154.712 583.345 154.649 583.523 154.649C583.705 154.649 583.859 154.712 583.985 154.837C584.115 154.959 584.179 155.113 584.179 155.299C584.179 155.477 584.115 155.629 583.985 155.755C583.859 155.881 583.705 155.943 583.523 155.943ZM584.009 163.749H583.012V157.524H584.009V163.749ZM587.049 162.849H587.024V166.612H586.027V157.524H587.024V158.618H587.049C587.539 157.791 588.256 157.378 589.2 157.378C590.003 157.378 590.629 157.658 591.079 158.217C591.529 158.772 591.754 159.518 591.754 160.454C591.754 161.495 591.5 162.33 590.994 162.958C590.487 163.582 589.794 163.894 588.915 163.894C588.108 163.894 587.486 163.546 587.049 162.849ZM587.024 160.338V161.208C587.024 161.722 587.19 162.16 587.523 162.521C587.859 162.877 588.285 163.056 588.799 163.056C589.403 163.056 589.875 162.825 590.216 162.363C590.56 161.901 590.732 161.258 590.732 160.436C590.732 159.743 590.572 159.2 590.252 158.807C589.932 158.413 589.498 158.217 588.951 158.217C588.372 158.217 587.906 158.42 587.553 158.825C587.201 159.226 587.024 159.731 587.024 160.338ZM504.378 177.533C504.204 177.399 503.953 177.332 503.625 177.332C503.199 177.332 502.843 177.533 502.555 177.934C502.271 178.335 502.129 178.882 502.129 179.575V182.749H501.132V176.524H502.129V177.807H502.154C502.295 177.369 502.512 177.028 502.804 176.785C503.096 176.538 503.422 176.415 503.783 176.415C504.042 176.415 504.241 176.443 504.378 176.5V177.533ZM510.463 179.885H506.068C506.085 180.578 506.271 181.113 506.628 181.49C506.984 181.867 507.475 182.056 508.099 182.056C508.8 182.056 509.444 181.825 510.032 181.363V182.299C509.485 182.696 508.761 182.894 507.862 182.894C506.982 182.894 506.291 182.613 505.789 182.049C505.286 181.482 505.035 180.686 505.035 179.661C505.035 178.692 505.308 177.904 505.856 177.296C506.407 176.684 507.09 176.378 507.904 176.378C508.719 176.378 509.349 176.641 509.795 177.168C510.24 177.695 510.463 178.427 510.463 179.363V179.885ZM509.442 179.041C509.438 178.465 509.298 178.017 509.023 177.697C508.751 177.377 508.372 177.217 507.886 177.217C507.416 177.217 507.017 177.385 506.688 177.721C506.36 178.058 506.157 178.498 506.08 179.041H509.442ZM517.29 185.612H516.293V181.679H516.268C515.835 182.489 515.126 182.894 514.141 182.894C513.359 182.894 512.731 182.617 512.256 182.062C511.786 181.502 511.551 180.743 511.551 179.782C511.551 178.749 511.811 177.924 512.329 177.308C512.848 176.688 513.545 176.378 514.42 176.378C515.271 176.378 515.887 176.714 516.268 177.387H516.293V176.524H517.29V185.612ZM516.293 179.946V179.041C516.293 178.53 516.124 178.098 515.788 177.746C515.456 177.393 515.032 177.217 514.518 177.217C513.918 177.217 513.444 177.44 513.095 177.886C512.747 178.327 512.573 178.951 512.573 179.758C512.573 180.475 512.741 181.038 513.077 181.448C513.413 181.853 513.847 182.056 514.378 182.056C514.961 182.056 515.425 181.857 515.77 181.46C516.118 181.059 516.293 180.554 516.293 179.946ZM524.341 182.749H523.344V181.764H523.32C522.906 182.518 522.266 182.894 521.399 182.894C519.916 182.894 519.174 182.011 519.174 180.244V176.524H520.165V180.086C520.165 181.399 520.667 182.056 521.672 182.056C522.159 182.056 522.558 181.877 522.87 181.521C523.186 181.16 523.344 180.69 523.344 180.11V176.524H524.341V182.749ZM526.87 174.943C526.691 174.943 526.539 174.883 526.414 174.761C526.288 174.64 526.225 174.486 526.225 174.299C526.225 174.113 526.288 173.959 526.414 173.837C526.539 173.712 526.691 173.649 526.87 173.649C527.052 173.649 527.206 173.712 527.332 173.837C527.461 173.959 527.526 174.113 527.526 174.299C527.526 174.477 527.461 174.629 527.332 174.755C527.206 174.881 527.052 174.943 526.87 174.943ZM527.356 182.749H526.359V176.524H527.356V182.749ZM532.62 177.533C532.446 177.399 532.195 177.332 531.866 177.332C531.441 177.332 531.084 177.533 530.796 177.934C530.513 178.335 530.371 178.882 530.371 179.575V182.749H529.374V176.524H530.371V177.807H530.395C530.537 177.369 530.754 177.028 531.046 176.785C531.337 176.538 531.664 176.415 532.024 176.415C532.284 176.415 532.482 176.443 532.62 176.5V177.533ZM538.705 179.885H534.31C534.326 180.578 534.513 181.113 534.869 181.49C535.226 181.867 535.716 182.056 536.34 182.056C537.041 182.056 537.686 181.825 538.273 181.363V182.299C537.726 182.696 537.003 182.894 536.103 182.894C535.224 182.894 534.533 182.613 534.03 182.049C533.528 181.482 533.277 180.686 533.277 179.661C533.277 178.692 533.55 177.904 534.097 177.296C534.648 176.684 535.331 176.378 536.146 176.378C536.96 176.378 537.59 176.641 538.036 177.168C538.482 177.695 538.705 178.427 538.705 179.363V179.885ZM537.684 179.041C537.68 178.465 537.54 178.017 537.264 177.697C536.993 177.377 536.614 177.217 536.127 177.217C535.657 177.217 535.258 177.385 534.93 177.721C534.602 178.058 534.399 178.498 534.322 179.041H537.684ZM549.057 182.749H548.06V179.174C548.06 178.485 547.953 177.987 547.738 177.679C547.527 177.371 547.17 177.217 546.668 177.217C546.242 177.217 545.88 177.411 545.58 177.8C545.284 178.19 545.136 178.656 545.136 179.199V182.749H544.139V179.053C544.139 177.829 543.667 177.217 542.723 177.217C542.285 177.217 541.924 177.401 541.641 177.77C541.357 178.135 541.215 178.611 541.215 179.199V182.749H540.218V176.524H541.215V177.509H541.24C541.681 176.755 542.326 176.378 543.173 176.378C543.598 176.378 543.969 176.498 544.285 176.737C544.601 176.972 544.818 177.282 544.935 177.667C545.397 176.808 546.086 176.378 547.002 176.378C548.372 176.378 549.057 177.223 549.057 178.913V182.749ZM555.944 179.885H551.549C551.565 180.578 551.752 181.113 552.108 181.49C552.465 181.867 552.955 182.056 553.579 182.056C554.28 182.056 554.925 181.825 555.512 181.363V182.299C554.965 182.696 554.242 182.894 553.342 182.894C552.463 182.894 551.772 182.613 551.269 182.049C550.767 181.482 550.516 180.686 550.516 179.661C550.516 178.692 550.789 177.904 551.336 177.296C551.887 176.684 552.57 176.378 553.385 176.378C554.199 176.378 554.83 176.641 555.275 177.168C555.721 177.695 555.944 178.427 555.944 179.363V179.885ZM554.923 179.041C554.919 178.465 554.779 178.017 554.503 177.697C554.232 177.377 553.853 177.217 553.367 177.217C552.897 177.217 552.497 177.385 552.169 177.721C551.841 178.058 551.638 178.498 551.561 179.041H554.923ZM562.624 182.749H561.628V179.199C561.628 177.877 561.145 177.217 560.181 177.217C559.682 177.217 559.269 177.405 558.941 177.782C558.617 178.155 558.454 178.627 558.454 179.199V182.749H557.458V176.524H558.454V177.557H558.479C558.949 176.771 559.63 176.378 560.521 176.378C561.202 176.378 561.723 176.599 562.083 177.041C562.444 177.478 562.624 178.113 562.624 178.943V182.749ZM567.396 182.688C567.161 182.817 566.851 182.882 566.466 182.882C565.376 182.882 564.831 182.274 564.831 181.059V177.375H563.761V176.524H564.831V175.004L565.828 174.682V176.524H567.396V177.375H565.828V180.882C565.828 181.3 565.899 181.598 566.041 181.776C566.183 181.954 566.418 182.043 566.746 182.043C566.997 182.043 567.214 181.975 567.396 181.837V182.688Z" fill="white"/>
    <rect x="445.6" y="32.259" width="76.2511" height="76.2511" rx="2.33422" fill="#5E36B7"/>
    <path fill-rule="evenodd" clip-rule="evenodd" d="M484.983 72.7423C484.001 73.4924 482.775 73.9379 481.444 73.9379C478.221 73.9379 475.608 71.3253 475.608 68.1024C475.608 64.8795 478.221 62.2668 481.444 62.2668C484.667 62.2668 487.279 64.8795 487.279 68.1024C487.279 69.4333 486.834 70.6602 486.084 71.6419L491.174 76.7322L490.074 77.8326L484.983 72.7423ZM485.723 68.1024C485.723 70.4658 483.807 72.3818 481.444 72.3818C479.08 72.3818 477.164 70.4658 477.164 68.1024C477.164 65.7389 479.08 63.823 481.444 63.823C483.807 63.823 485.723 65.7389 485.723 68.1024Z" fill="white"/>
    <rect x="445.6" y="32.259" width="76.2511" height="76.2511" rx="2.33422" stroke="#2C0C72" stroke-width="1.55614"/>
    <g filter="url(#filter1_d_174_3108)">
        <g clip-path="url(#clip2_174_3108)">
            <rect x="34" y="225.518" width="107.374" height="64.58" rx="3.11229" fill="white"/>
            <rect opacity="0.1" x="34" y="225.518" width="107.374" height="64.58" fill="#9E77F3"/>
            <path d="M93.2378 252.369C91.6264 252.369 90.3201 253.675 90.3201 255.286V266.957C90.3201 268.569 91.6264 269.875 93.2378 269.875H110.744C112.356 269.875 113.662 268.569 113.662 266.957H96.1556C94.5442 266.957 93.2378 265.651 93.2378 264.04V252.369Z" fill="black"/>
            <path d="M99.0734 243.615C97.4619 243.615 96.1556 244.922 96.1556 246.533V261.122C96.1556 262.733 97.4619 264.04 99.0734 264.04H116.58C118.191 264.04 119.498 262.733 119.498 261.122V249.451C119.498 247.839 118.191 246.533 116.58 246.533H107.827C107.827 244.922 106.52 243.615 104.909 243.615H99.0734Z" fill="black"/>
            <path d="M73.1514 261.446H67.1654V267.417H65.1948V261.446H59.2236V259.46H65.1948V253.489H67.1654V259.46H73.1514V261.446Z" fill="#002033"/>
        </g>
        <rect x="34.7781" y="226.296" width="105.818" height="63.0239" rx="2.33422" stroke="#5E36B7" stroke-width="1.55614"/>
    </g>
    <g filter="url(#filter2_d_174_3108)">
        <rect x="235.521" y="356.234" width="76.2511" height="76.2511" rx="1.84144" fill="#F6F2FE" stroke="#5E36B7" stroke-width="1.55614"/>
        <g clip-path="url(#clip3_174_3108)">
            <path fill-rule="evenodd" clip-rule="evenodd" d="M282.88 402.971C283.48 404.39 284.081 405.808 284.68 407.228C285.361 408.841 286.032 410.459 286.723 412.069C286.961 412.624 287.004 413.156 286.581 413.619C286.17 414.069 285.646 414.088 285.09 413.892C283.764 413.423 282.43 412.975 281.107 412.496C280.782 412.379 280.649 412.464 280.512 412.762C279.904 414.093 279.277 415.414 278.646 416.734C278.395 417.261 277.953 417.458 277.382 417.416C276.875 417.378 276.562 417.093 276.376 416.648C275.392 414.305 274.413 411.959 273.431 409.615C273.386 409.507 273.329 409.404 273.248 409.238C272.91 410.036 272.592 410.78 272.28 411.527C271.569 413.228 270.864 414.931 270.152 416.632C269.938 417.14 269.568 417.414 268.993 417.42C268.415 417.426 268.064 417.145 267.829 416.644C267.208 415.32 266.571 414.003 265.952 412.677C265.837 412.432 265.721 412.395 265.464 412.486C264.064 412.984 262.657 413.462 261.25 413.939C260.758 414.105 260.288 414.018 259.944 413.635C259.6 413.251 259.5 412.788 259.716 412.275C260.865 409.544 262.005 406.809 263.15 404.076C263.205 403.943 263.282 403.818 263.349 403.69C263.524 403.764 263.689 403.853 263.802 404.015C263.235 405.39 262.673 406.767 262.102 408.14C261.515 409.55 260.918 410.957 260.328 412.366C260.2 412.674 260.156 412.988 260.417 413.251C260.658 413.494 260.936 413.421 261.223 413.32C262.687 412.806 264.158 412.312 265.618 411.787C265.991 411.653 266.173 411.723 266.342 412.093C266.991 413.521 267.674 414.933 268.343 416.351C268.475 416.632 268.663 416.85 268.994 416.845C269.305 416.841 269.498 416.64 269.613 416.367C270.659 413.864 271.694 411.356 272.758 408.86C272.923 408.471 272.896 408.171 272.664 407.849C272.557 407.913 272.539 408.006 272.504 408.089C271.469 410.554 270.434 413.02 269.397 415.484C269.328 415.648 269.307 415.88 269.074 415.885C268.827 415.89 268.782 415.649 268.697 415.479C267.986 414.064 267.272 412.652 266.577 411.229C266.453 410.975 266.335 410.915 266.067 411.009C265.298 411.278 264.52 411.522 263.744 411.772C262.956 412.026 262.166 412.275 261.378 412.53C261.246 412.573 261.119 412.611 261.013 412.492C260.922 412.389 260.949 412.272 260.997 412.157C261.038 412.06 261.071 411.96 261.112 411.863C262.175 409.324 263.238 406.785 264.302 404.246C265.19 404.48 266.1 404.456 266.999 404.4C268.187 404.326 269.201 404.705 270.167 405.353C270.95 405.878 271.756 406.384 272.751 406.405C274.121 409.685 275.493 412.965 276.858 416.248C276.987 416.558 277.137 416.834 277.509 416.844C277.88 416.854 278.057 416.588 278.198 416.286C278.831 414.938 279.459 413.588 280.105 412.246C280.407 411.62 280.259 411.58 281.066 411.859C282.483 412.348 283.901 412.835 285.314 413.333C285.625 413.442 285.904 413.465 286.143 413.203C286.386 412.938 286.317 412.66 286.192 412.361C284.946 409.4 283.707 406.435 282.466 403.472C282.593 403.296 282.696 403.1 282.88 402.971Z" fill="black"/>
            <mask id="mask0_174_3108" style="mask-type:alpha" maskUnits="userSpaceOnUse" x="254" y="370" width="37" height="37">
                <path d="M254.938 370.567H290.696V406.417H254.938V370.567Z" fill="white"/>
            </mask>
            <g mask="url(#mask0_174_3108)">
                <path fill-rule="evenodd" clip-rule="evenodd" d="M266.93 373.272C266.29 373.272 265.854 373.254 265.421 373.276C264.631 373.315 263.973 373.609 263.503 374.284C263.139 374.805 262.838 375.361 262.553 375.925C262.04 376.937 261.286 377.694 260.273 378.204C259.827 378.428 259.397 378.687 258.962 378.934C258.052 379.45 257.624 380.242 257.633 381.283C257.639 381.956 257.633 382.63 257.644 383.303C257.656 384.049 257.465 384.737 257.088 385.376C256.786 385.887 256.486 386.398 256.173 386.902C255.527 387.944 255.494 388.982 256.163 390.027C256.32 390.271 256.446 390.535 256.615 390.77C257.409 391.875 257.764 393.096 257.647 394.459C257.611 394.878 257.631 395.303 257.635 395.726C257.643 396.627 257.953 397.377 258.736 397.879C259.035 398.07 259.331 398.277 259.653 398.42C261.097 399.065 262.178 400.066 262.822 401.528C262.955 401.828 263.137 402.107 263.301 402.392C263.816 403.287 264.605 403.7 265.622 403.699C266.32 403.699 267.019 403.698 267.717 403.691C268.462 403.683 269.145 403.897 269.781 404.272C270.291 404.573 270.801 404.876 271.304 405.189C272.309 405.815 273.309 405.823 274.316 405.197C274.696 404.961 275.088 404.743 275.463 404.498C276.325 403.934 277.253 403.628 278.296 403.686C278.861 403.717 279.429 403.698 279.996 403.7C281.029 403.703 281.828 403.287 282.345 402.373C282.591 401.937 282.85 401.507 283.074 401.059C283.583 400.045 284.327 399.28 285.345 398.773C285.804 398.544 286.249 398.285 286.689 398.021C287.405 397.594 287.885 397.005 287.967 396.137C288.043 395.332 287.99 394.527 287.988 393.723C287.986 392.907 288.189 392.16 288.61 391.467C288.917 390.959 289.218 390.448 289.524 389.939C290.09 388.998 290.118 388.048 289.563 387.093C289.318 386.671 289.071 386.25 288.807 385.84C288.241 384.963 287.926 384.023 287.988 382.963C288.021 382.384 288.008 381.802 288 381.221C287.987 380.338 287.682 379.603 286.919 379.096C286.402 378.752 285.859 378.456 285.308 378.174C284.337 377.677 283.609 376.947 283.109 375.975C282.862 375.495 282.594 375.025 282.321 374.559C281.896 373.833 281.283 373.371 280.429 373.293C280.102 373.263 279.771 373.274 279.442 373.268C278.731 373.255 278.017 373.327 277.31 373.231C276.437 373.111 275.688 372.669 275.001 372.162C273.535 371.077 272.118 371.062 270.652 372.156C269.494 373.021 268.201 373.491 266.93 373.272ZM263.802 404.015C263.689 403.853 263.525 403.764 263.349 403.69C262.593 402.799 262.132 401.724 261.523 400.741C261.141 400.125 260.553 399.75 259.935 399.412C259.334 399.084 258.715 398.786 258.166 398.371C257.367 397.766 256.956 396.959 256.925 395.962C256.911 395.487 256.888 395.008 256.933 394.537C257.052 393.28 256.707 392.17 255.992 391.146C255.721 390.759 255.491 390.339 255.282 389.914C254.811 388.952 254.832 387.982 255.293 387.017C255.555 386.467 255.889 385.96 256.213 385.448C256.706 384.669 256.988 383.843 256.935 382.907C256.903 382.34 256.927 381.771 256.92 381.204C256.904 379.924 257.473 378.977 258.554 378.328C258.971 378.077 259.393 377.83 259.83 377.616C260.789 377.146 261.495 376.442 261.969 375.48C262.294 374.819 262.632 374.161 263.121 373.595C263.72 372.901 264.486 372.585 265.383 372.559C265.844 372.546 266.309 372.517 266.766 372.565C268.053 372.698 269.177 372.314 270.219 371.585C270.562 371.344 270.938 371.146 271.311 370.952C272.319 370.425 273.33 370.451 274.342 370.954C274.863 371.213 275.351 371.527 275.837 371.841C276.625 372.349 277.471 372.61 278.414 372.569C278.98 372.544 279.547 372.561 280.113 372.556C281.393 372.544 282.328 373.13 282.967 374.217C283.228 374.66 283.488 375.105 283.716 375.565C284.16 376.462 284.827 377.12 285.719 377.567C286.272 377.844 286.817 378.138 287.328 378.491C288.242 379.121 288.702 379.994 288.714 381.104C288.718 381.539 288.747 381.978 288.705 382.41C288.581 383.681 288.929 384.806 289.657 385.837C289.884 386.159 290.072 386.51 290.26 386.858C290.885 388.015 290.823 389.16 290.167 390.284C289.842 390.842 289.511 391.396 289.181 391.952C288.849 392.51 288.698 393.114 288.705 393.763C288.713 394.423 288.705 395.083 288.716 395.743C288.738 397.024 288.172 397.973 287.097 398.628C286.636 398.909 286.162 399.17 285.683 399.419C284.904 399.825 284.264 400.367 283.852 401.161C283.537 401.768 283.205 402.368 282.881 402.971C282.697 403.1 282.594 403.296 282.467 403.471C282.3 403.566 282.172 403.704 282.05 403.849C281.344 404.323 280.557 404.447 279.725 404.418C279.134 404.398 278.542 404.414 277.95 404.412C277.538 404.411 277.141 404.487 276.765 404.653C275.594 405.168 274.611 406.048 273.365 406.417C273.161 406.359 272.956 406.404 272.751 406.405C271.757 406.384 270.95 405.877 270.167 405.353C269.202 404.705 268.187 404.326 266.999 404.4C266.1 404.456 265.19 404.48 264.302 404.246C264.151 404.134 263.992 404.041 263.802 404.015Z" fill="black"/>
            </g>
            <path fill-rule="evenodd" clip-rule="evenodd" d="M277.872 392.215C278.192 392.224 278.407 391.959 278.314 391.63C277.744 389.631 277.166 387.635 276.59 385.638C276.501 385.33 276.267 385.268 275.998 385.332C275.779 385.384 275.721 385.592 275.664 385.784C275.294 387.033 274.924 388.282 274.554 389.53C274.352 390.211 274.14 390.89 273.949 391.574C273.871 391.856 273.931 392.118 274.257 392.199C274.541 392.27 274.736 392.156 274.813 391.849C274.886 391.556 274.996 391.272 275.07 390.979C275.12 390.777 275.225 390.704 275.431 390.71C275.891 390.722 276.352 390.722 276.813 390.71C277.03 390.705 277.149 390.762 277.195 390.997C277.25 391.28 277.348 391.555 277.436 391.831C277.503 392.043 277.61 392.219 277.872 392.215ZM267.523 388.782C267.492 389.11 267.586 389.42 267.739 389.72C268.033 390.295 268.325 390.871 268.603 391.454C268.827 391.923 269.166 392.201 269.701 392.22C270.264 392.239 270.608 391.944 270.839 391.464C271.143 390.835 271.458 390.212 271.754 389.58C272.008 389.035 272.006 388.482 271.742 387.938C271.414 387.263 271.089 386.585 270.745 385.918C270.332 385.118 269.185 385.061 268.737 385.844C268.319 386.575 267.979 387.35 267.616 388.11C267.518 388.314 267.502 388.543 267.523 388.782ZM280.331 388.647C280.331 389.65 280.335 390.653 280.328 391.656C280.327 391.983 280.442 392.207 280.791 392.211C281.19 392.216 281.25 391.913 281.257 391.609C281.269 391.041 281.27 390.473 281.256 389.906C281.25 389.664 281.332 389.585 281.573 389.591C282.191 389.604 282.811 389.605 283.43 389.592C284.166 389.576 284.726 389.022 284.748 388.283C284.765 387.729 284.766 387.174 284.748 386.62C284.723 385.867 284.142 385.317 283.391 385.315C282.495 385.313 281.599 385.326 280.704 385.308C280.416 385.302 280.317 385.372 280.323 385.678C280.343 386.667 280.331 387.657 280.331 388.647ZM261.113 388.659C261.113 389.636 261.112 390.612 261.113 391.589C261.114 391.694 261.099 391.808 261.134 391.903C261.215 392.122 261.381 392.236 261.625 392.214C261.93 392.186 262.024 391.96 262.032 391.715C262.052 391.135 262.056 390.553 262.037 389.973C262.027 389.685 262.099 389.576 262.407 389.588C263.012 389.612 263.618 389.606 264.224 389.591C264.94 389.574 265.501 389.028 265.529 388.31C265.551 387.744 265.55 387.175 265.529 386.608C265.502 385.856 264.918 385.317 264.16 385.315C263.265 385.313 262.369 385.328 261.474 385.307C261.166 385.3 261.102 385.403 261.106 385.69C261.123 386.679 261.113 387.669 261.113 388.659ZM266.93 373.271C268.201 373.49 269.494 373.02 270.652 372.156C272.118 371.062 273.535 371.077 275.001 372.161C275.688 372.669 276.437 373.111 277.31 373.23C278.017 373.327 278.732 373.255 279.442 373.268C279.771 373.274 280.102 373.263 280.429 373.293C281.284 373.371 281.896 373.833 282.321 374.559C282.594 375.025 282.863 375.495 283.11 375.975C283.609 376.946 284.338 377.677 285.308 378.174C285.859 378.456 286.402 378.751 286.919 379.095C287.682 379.603 287.988 380.338 288 381.221C288.008 381.801 288.021 382.384 287.988 382.963C287.927 384.023 288.241 384.963 288.807 385.84C289.072 386.249 289.319 386.671 289.564 387.093C290.119 388.048 290.09 388.998 289.524 389.939C289.218 390.447 288.918 390.959 288.61 391.466C288.189 392.16 287.986 392.907 287.988 393.723C287.991 394.527 288.043 395.332 287.967 396.136C287.885 397.004 287.405 397.594 286.69 398.021C286.249 398.284 285.804 398.544 285.345 398.773C284.328 399.28 283.583 400.045 283.075 401.059C282.85 401.507 282.592 401.937 282.345 402.373C281.828 403.287 281.029 403.702 279.996 403.699C279.429 403.698 278.862 403.717 278.296 403.686C277.253 403.628 276.326 403.934 275.463 404.498C275.088 404.743 274.696 404.961 274.316 405.197C273.309 405.823 272.309 405.815 271.304 405.189C270.801 404.875 270.292 404.573 269.781 404.272C269.145 403.897 268.463 403.683 267.717 403.69C267.019 403.697 266.321 403.699 265.622 403.699C264.605 403.7 263.817 403.287 263.301 402.392C263.137 402.107 262.955 401.828 262.823 401.528C262.179 400.066 261.097 399.064 259.653 398.42C259.331 398.276 259.035 398.07 258.736 397.878C257.954 397.377 257.643 396.626 257.635 395.725C257.632 395.303 257.612 394.878 257.647 394.458C257.764 393.096 257.409 391.875 256.615 390.77C256.446 390.535 256.32 390.27 256.164 390.026C255.494 388.982 255.527 387.944 256.173 386.902C256.486 386.398 256.787 385.887 257.088 385.376C257.466 384.737 257.656 384.048 257.644 383.303C257.634 382.629 257.639 381.956 257.634 381.282C257.625 380.242 258.052 379.45 258.962 378.933C259.397 378.686 259.827 378.428 260.273 378.203C261.286 377.694 262.04 376.937 262.553 375.924C262.838 375.36 263.139 374.805 263.503 374.283C263.974 373.609 264.632 373.314 265.421 373.275C265.855 373.254 266.29 373.271 266.93 373.271Z" fill="white"/>
            <path fill-rule="evenodd" clip-rule="evenodd" d="M282.05 403.848C283.023 406.181 283.997 408.513 284.97 410.845C285.137 411.246 285.31 411.645 285.47 412.049C285.526 412.19 285.625 412.346 285.491 412.493C285.355 412.644 285.2 412.551 285.052 412.503C283.526 412.012 281.997 411.528 280.477 411.021C280.174 410.919 280.05 410.984 279.913 411.266C279.221 412.688 278.506 414.1 277.797 415.514C277.722 415.664 277.673 415.84 277.448 415.838C277.214 415.837 277.184 415.643 277.122 415.495C275.894 412.57 274.671 409.644 273.449 406.716C273.409 406.621 273.392 406.516 273.365 406.416C274.612 406.047 275.594 405.168 276.765 404.653C277.142 404.487 277.538 404.411 277.95 404.412C278.542 404.414 279.134 404.398 279.725 404.418C280.557 404.447 281.344 404.323 282.05 403.848Z" fill="black"/>
            <path fill-rule="evenodd" clip-rule="evenodd" d="M262.004 387.441C262.004 387.77 262.01 388.1 262.002 388.429C261.997 388.619 262.042 388.721 262.263 388.717C262.88 388.706 263.498 388.715 264.116 388.712C264.453 388.711 264.632 388.519 264.643 388.198C264.661 387.712 264.663 387.223 264.644 386.737C264.632 386.404 264.458 386.202 264.093 386.206C263.501 386.213 262.909 386.216 262.318 386.205C262.074 386.2 261.991 386.298 262.001 386.532C262.014 386.835 262.004 387.138 262.004 387.441ZM261.113 388.659C261.113 387.669 261.123 386.679 261.106 385.69C261.101 385.403 261.166 385.3 261.473 385.307C262.369 385.328 263.265 385.313 264.16 385.315C264.918 385.317 265.502 385.856 265.529 386.608C265.55 387.175 265.551 387.744 265.529 388.31C265.501 389.028 264.94 389.574 264.224 389.591C263.618 389.606 263.011 389.612 262.406 389.588C262.099 389.576 262.027 389.685 262.037 389.973C262.056 390.553 262.052 391.135 262.032 391.715C262.023 391.96 261.93 392.186 261.625 392.214C261.381 392.236 261.215 392.122 261.134 391.902C261.099 391.808 261.113 391.694 261.113 391.589C261.112 390.612 261.113 389.636 261.113 388.659Z" fill="black"/>
            <path fill-rule="evenodd" clip-rule="evenodd" d="M281.222 387.457C281.222 387.786 281.231 388.116 281.219 388.445C281.212 388.654 281.295 388.719 281.497 388.716C282.101 388.707 282.706 388.712 283.311 388.713C283.667 388.714 283.852 388.523 283.863 388.182C283.878 387.695 283.883 387.207 283.861 386.72C283.845 386.384 283.656 386.199 283.294 386.205C282.716 386.215 282.137 386.217 281.559 386.204C281.301 386.197 281.205 386.291 281.218 386.548C281.234 386.85 281.222 387.154 281.222 387.457ZM280.33 388.647C280.33 387.657 280.343 386.667 280.323 385.677C280.317 385.371 280.415 385.302 280.703 385.308C281.599 385.326 282.495 385.313 283.39 385.315C284.142 385.317 284.723 385.866 284.748 386.62C284.766 387.174 284.765 387.729 284.748 388.283C284.726 389.022 284.166 389.576 283.429 389.592C282.811 389.605 282.191 389.604 281.572 389.59C281.331 389.585 281.25 389.664 281.256 389.906C281.27 390.473 281.269 391.041 281.257 391.608C281.25 391.912 281.19 392.215 280.791 392.211C280.442 392.207 280.326 391.982 280.328 391.656C280.334 390.653 280.33 389.65 280.33 388.647Z" fill="black"/>
            <path fill-rule="evenodd" clip-rule="evenodd" d="M271.022 388.772C270.996 388.644 270.995 388.504 270.941 388.39C270.623 387.724 270.302 387.06 269.961 386.406C269.813 386.121 269.579 386.124 269.43 386.414C269.105 387.047 268.8 387.69 268.498 388.334C268.341 388.666 268.383 389.003 268.542 389.325C268.827 389.904 269.118 390.48 269.405 391.059C269.471 391.191 269.538 391.332 269.712 391.324C269.861 391.318 269.928 391.195 269.989 391.073C270.289 390.472 270.593 389.873 270.893 389.272C270.971 389.116 271.016 388.952 271.022 388.772ZM267.523 388.783C267.502 388.543 267.519 388.314 267.616 388.111C267.979 387.35 268.319 386.575 268.737 385.845C269.185 385.061 270.332 385.119 270.745 385.918C271.089 386.585 271.414 387.263 271.742 387.939C272.006 388.482 272.008 389.036 271.754 389.58C271.458 390.212 271.143 390.836 270.84 391.465C270.608 391.944 270.264 392.239 269.701 392.22C269.166 392.202 268.827 391.923 268.603 391.454C268.325 390.872 268.033 390.295 267.739 389.72C267.586 389.42 267.492 389.11 267.523 388.783Z" fill="black"/>
            <path fill-rule="evenodd" clip-rule="evenodd" d="M276.194 387.555C276.161 387.556 276.127 387.556 276.093 387.557C275.972 387.968 275.84 388.377 275.732 388.791C275.644 389.13 275.313 389.584 275.542 389.778C275.767 389.967 276.268 389.824 276.647 389.832C276.812 389.836 276.844 389.781 276.795 389.62C276.588 388.934 276.394 388.244 276.194 387.555ZM277.871 392.214C277.61 392.219 277.503 392.043 277.435 391.831C277.348 391.555 277.25 391.28 277.195 390.997C277.149 390.762 277.029 390.704 276.812 390.71C276.352 390.721 275.891 390.722 275.431 390.71C275.225 390.704 275.12 390.777 275.069 390.979C274.996 391.272 274.885 391.556 274.812 391.849C274.736 392.156 274.54 392.27 274.256 392.199C273.93 392.118 273.87 391.855 273.949 391.573C274.14 390.889 274.351 390.211 274.553 389.53C274.924 388.282 275.294 387.033 275.663 385.784C275.72 385.591 275.778 385.384 275.998 385.332C276.266 385.268 276.501 385.33 276.589 385.638C277.166 387.635 277.744 389.631 278.314 391.63C278.407 391.959 278.191 392.224 277.871 392.214Z" fill="black"/>
            <path fill-rule="evenodd" clip-rule="evenodd" d="M262.004 387.441C262.005 387.138 262.014 386.835 262.001 386.532C261.992 386.297 262.074 386.199 262.318 386.204C262.91 386.216 263.501 386.213 264.093 386.206C264.459 386.202 264.632 386.404 264.645 386.736C264.664 387.223 264.661 387.711 264.644 388.198C264.632 388.519 264.454 388.71 264.116 388.712C263.499 388.715 262.881 388.706 262.263 388.717C262.042 388.721 261.997 388.619 262.002 388.429C262.011 388.1 262.004 387.77 262.004 387.441Z" fill="white"/>
            <path fill-rule="evenodd" clip-rule="evenodd" d="M281.222 387.457C281.222 387.154 281.234 386.85 281.218 386.548C281.205 386.291 281.3 386.197 281.559 386.204C282.137 386.217 282.716 386.215 283.294 386.205C283.655 386.199 283.845 386.385 283.86 386.72C283.882 387.207 283.877 387.695 283.862 388.182C283.852 388.523 283.666 388.714 283.31 388.713C282.706 388.712 282.101 388.707 281.496 388.716C281.295 388.719 281.211 388.654 281.219 388.445C281.23 388.116 281.222 387.786 281.222 387.457Z" fill="white"/>
            <path fill-rule="evenodd" clip-rule="evenodd" d="M271.022 388.772C271.016 388.952 270.971 389.116 270.893 389.272C270.593 389.873 270.289 390.472 269.989 391.073C269.928 391.195 269.861 391.317 269.711 391.324C269.537 391.332 269.471 391.191 269.405 391.058C269.117 390.48 268.826 389.904 268.541 389.325C268.383 389.003 268.341 388.666 268.497 388.334C268.8 387.69 269.104 387.047 269.429 386.414C269.579 386.124 269.813 386.121 269.961 386.406C270.301 387.06 270.622 387.724 270.94 388.39C270.995 388.504 270.996 388.644 271.022 388.772Z" fill="white"/>
            <path fill-rule="evenodd" clip-rule="evenodd" d="M276.195 387.555C276.394 388.244 276.588 388.934 276.796 389.62C276.844 389.781 276.812 389.836 276.648 389.832C276.268 389.824 275.767 389.967 275.543 389.778C275.313 389.584 275.644 389.13 275.732 388.791C275.841 388.377 275.972 387.968 276.093 387.557C276.127 387.556 276.161 387.555 276.195 387.555Z" fill="white"/>
        </g>
    </g>
    <g filter="url(#filter3_d_174_3108)">
        <g clip-path="url(#clip4_174_3108)">
            <rect x="234.743" y="31" width="77.8073" height="77.8073" rx="3.11229" fill="white"/>
            <rect opacity="0.1" x="235.521" y="31" width="77.0292" height="77.8073" fill="#9E77F3"/>
            <circle cx="274.035" cy="80.7632" r="11.2843" fill="white" stroke="black" stroke-width="1.5517"/>
            <path fill-rule="evenodd" clip-rule="evenodd" d="M273.857 88.6885C273.575 88.6885 273.346 88.4595 273.346 88.1771L273.346 86.4432C273.346 86.1608 273.575 85.9319 273.857 85.9319L274.213 85.9319C274.495 85.9319 274.724 86.1608 274.724 86.4432L274.724 88.1771C274.724 88.4595 274.495 88.6885 274.213 88.6885L273.857 88.6885Z" fill="black"/>
            <path fill-rule="evenodd" clip-rule="evenodd" d="M273.857 76.2836C273.575 76.2836 273.346 76.0547 273.346 75.7723L273.346 73.3492C273.346 73.0668 273.575 72.8379 273.857 72.8379L274.213 72.8379C274.495 72.8379 274.724 73.0668 274.724 73.3492L274.724 75.7723C274.724 76.0547 274.495 76.2836 274.213 76.2836L273.857 76.2836Z" fill="black"/>
            <mask id="path-56-inside-1_174_3108" fill="white">
                <path d="M272.657 76.2841L275.069 76.2841C275.845 76.2841 276.501 76.7973 276.717 77.5029C276.799 77.773 277.021 78.0069 277.303 78.0069L277.659 78.0069C277.941 78.0069 278.174 77.7763 278.128 77.4977C277.886 76.0272 276.608 74.9058 275.069 74.9058L272.657 74.9058C270.944 74.9058 269.556 76.2942 269.556 78.0069L269.556 83.5201C269.556 85.2329 270.944 86.6213 272.657 86.6213L275.069 86.6213C276.608 86.6213 277.886 85.4999 278.128 84.0294C278.174 83.7508 277.941 83.5201 277.659 83.5201L277.303 83.5201C277.021 83.5201 276.799 83.7541 276.717 84.0242C276.501 84.7298 275.845 85.243 275.069 85.243L272.657 85.243C271.705 85.243 270.934 84.4718 270.934 83.5201L270.934 78.0069C270.934 77.0553 271.705 76.2841 272.657 76.2841Z"/>
            </mask>
            <path d="M272.657 76.2841L275.069 76.2841C275.845 76.2841 276.501 76.7973 276.717 77.5029C276.799 77.773 277.021 78.0069 277.303 78.0069L277.659 78.0069C277.941 78.0069 278.174 77.7763 278.128 77.4977C277.886 76.0272 276.608 74.9058 275.069 74.9058L272.657 74.9058C270.944 74.9058 269.556 76.2942 269.556 78.0069L269.556 83.5201C269.556 85.2329 270.944 86.6213 272.657 86.6213L275.069 86.6213C276.608 86.6213 277.886 85.4999 278.128 84.0294C278.174 83.7508 277.941 83.5201 277.659 83.5201L277.303 83.5201C277.021 83.5201 276.799 83.7541 276.717 84.0242C276.501 84.7298 275.845 85.243 275.069 85.243L272.657 85.243C271.705 85.243 270.934 84.4718 270.934 83.5201L270.934 78.0069C270.934 77.0553 271.705 76.2841 272.657 76.2841Z" fill="black"/>
            <path d="M276.717 77.5029L275.233 77.9561L275.233 77.9561L276.717 77.5029ZM276.717 84.0242L275.233 83.5709L275.233 83.5709L276.717 84.0242ZM278.128 84.0294L276.597 83.7765L276.597 83.7765L278.128 84.0294ZM278.128 77.4977L276.597 77.7506L276.597 77.7506L278.128 77.4977ZM275.069 74.7324L272.657 74.7324L272.657 77.8358L275.069 77.8358L275.069 74.7324ZM278.201 77.0497C277.792 75.7096 276.546 74.7324 275.069 74.7324L275.069 77.8358C275.144 77.8358 275.211 77.8849 275.233 77.9561L278.201 77.0497ZM275.069 86.7947C276.546 86.7947 277.792 85.8174 278.201 84.4774L275.233 83.5709C275.211 83.6422 275.144 83.6913 275.069 83.6913L275.069 86.7947ZM272.657 86.7947L275.069 86.7947L275.069 83.6913L272.657 83.6913L272.657 86.7947ZM269.382 83.5201C269.382 85.3287 270.848 86.7947 272.657 86.7947L272.657 83.6913C272.562 83.6913 272.486 83.6148 272.486 83.5201L269.382 83.5201ZM269.382 78.0069L269.382 83.5201L272.486 83.5201L272.486 78.0069L269.382 78.0069ZM272.657 74.7324C270.848 74.7324 269.382 76.1983 269.382 78.0069L272.486 78.0069C272.486 77.9123 272.562 77.8358 272.657 77.8358L272.657 74.7324ZM275.069 88.173C277.38 88.173 279.295 86.4898 279.659 84.2823L276.597 83.7765C276.476 84.51 275.836 85.0696 275.069 85.0696L275.069 88.173ZM272.657 88.173L275.069 88.173L275.069 85.0696L272.657 85.0696L272.657 88.173ZM268.004 83.5201C268.004 86.0899 270.087 88.173 272.657 88.173L272.657 85.0696C271.801 85.0696 271.107 84.3759 271.107 83.5201L268.004 83.5201ZM268.004 78.0069L268.004 83.5201L271.107 83.5201L271.107 78.0069L268.004 78.0069ZM272.657 73.3541C270.087 73.3541 268.004 75.4372 268.004 78.0069L271.107 78.0069C271.107 77.1511 271.801 76.4575 272.657 76.4575L272.657 73.3541ZM275.069 73.3541L272.657 73.3541L272.657 76.4575L275.069 76.4575L275.069 73.3541ZM279.659 77.2448C279.295 75.0373 277.38 73.3541 275.069 73.3541L275.069 76.4575C275.836 76.4575 276.476 77.0171 276.597 77.7506L279.659 77.2448ZM277.659 76.4552L277.303 76.4552L277.303 79.5586L277.659 79.5586L277.659 76.4552ZM277.303 85.0718L277.659 85.0718L277.659 81.9684L277.303 81.9684L277.303 85.0718ZM276.597 77.7506C276.535 77.372 276.672 77.0191 276.892 76.7879C277.1 76.5686 277.379 76.4552 277.659 76.4552L277.659 79.5586C278.715 79.5586 279.89 78.6421 279.659 77.2448L276.597 77.7506ZM279.659 84.2823C279.89 82.8849 278.715 81.9684 277.659 81.9684L277.659 85.0718C277.379 85.0718 277.1 84.9584 276.892 84.7392C276.672 84.508 276.535 84.1551 276.597 83.7765L279.659 84.2823ZM278.201 84.4774C278.169 84.5807 278.106 84.7027 277.982 84.8163C277.848 84.9382 277.614 85.0718 277.303 85.0718L277.303 81.9684C276.092 81.9684 275.432 82.9195 275.233 83.5709L278.201 84.4774ZM275.233 77.9561C275.432 78.6076 276.092 79.5586 277.303 79.5586L277.303 76.4552C277.614 76.4552 277.848 76.5889 277.982 76.7107C278.106 76.8244 278.169 76.9464 278.201 77.0497L275.233 77.9561Z" fill="black" mask="url(#path-56-inside-1_174_3108)"/>
            <circle cx="267.833" cy="49.7516" r="1.63618" fill="white" stroke="black" stroke-width="1.5517"/>
            <circle cx="279.893" cy="49.7516" r="1.63618" fill="white" stroke="black" stroke-width="1.5517"/>
            <circle cx="265.077" cy="60.4335" r="1.63618" fill="white" stroke="black" stroke-width="1.5517"/>
            <circle cx="282.995" cy="60.4335" r="1.63618" fill="white" stroke="black" stroke-width="1.5517"/>
            <path d="M265.077 62.1565V66.7845C265.077 68.0365 265.65 69.2195 266.633 69.9953L267.833 70.9432" stroke="black" stroke-width="1.5517"/>
            <path d="M282.995 62.1565V66.8851C282.995 68.0623 282.487 69.1824 281.603 69.9591L279.893 71.46" stroke="black" stroke-width="1.5517"/>
            <path d="M279.893 51.6467V52.4994C279.893 53.6442 279.414 54.7366 278.571 55.5113L277.081 56.8807C276.238 57.6554 275.758 58.7478 275.758 59.8926V69.3923" stroke="black" stroke-width="1.5517"/>
            <path d="M267.833 51.6467V52.245C267.833 53.3898 268.312 54.4822 269.155 55.2568L270.645 56.6262C271.488 57.4009 271.968 58.4933 271.968 59.6381V69.3923" stroke="black" stroke-width="1.5517"/>
        </g>
        <rect x="235.521" y="31.7781" width="76.2511" height="76.2511" rx="2.33422" stroke="#5E36B7" stroke-width="1.55614"/>
    </g>
    <g filter="url(#filter4_d_174_3108)">
        <g clip-path="url(#clip5_174_3108)">
            <rect x="234.743" y="127.481" width="77.8073" height="77.8073" rx="3.11229" fill="white"/>
            <rect opacity="0.1" x="235.521" y="127.481" width="77.0292" height="77.8073" fill="#9E77F3"/>
            <path d="M284.068 152.379V158.651H258.981C258.981 154.171 259.877 152.379 263.461 152.379H284.068Z" fill="white" stroke="black" stroke-width="1.57248" stroke-linejoin="round"/>
            <mask id="path-70-inside-2_174_3108" fill="white">
                <rect x="258.085" y="156.859" width="34.0465" height="25.0869" rx="0.455795"/>
            </mask>
            <rect x="258.085" y="156.859" width="34.0465" height="25.0869" rx="0.455795" fill="white" stroke="black" stroke-width="3.14495" mask="url(#path-70-inside-2_174_3108)"/>
            <circle cx="284.286" cy="169.525" r="1.74951" fill="black"/>
        </g>
        <rect x="235.521" y="128.259" width="76.2511" height="76.2511" rx="2.33422" stroke="#5E36B7" stroke-width="1.55614"/>
    </g>
    <g filter="url(#filter5_d_174_3108)">
        <g clip-path="url(#clip6_174_3108)">
            <rect x="234.743" y="223.962" width="77.8073" height="77.8073" rx="3.11229" fill="white"/>
            <rect opacity="0.1" x="235.521" y="223.962" width="77.0292" height="77.8073" fill="#9E77F3"/>
            <path d="M263.756 280.798V273.462H265.782C268.367 273.462 269.66 274.654 269.66 277.038C269.66 278.17 269.3 279.081 268.58 279.77C267.864 280.456 266.904 280.798 265.7 280.798H263.756ZM264.615 274.239V280.021H265.71C266.672 280.021 267.421 279.763 267.956 279.248C268.492 278.733 268.759 278.003 268.759 277.058C268.759 275.179 267.76 274.239 265.761 274.239H264.615ZM276.526 280.798H275.574L274.796 278.742H271.686L270.954 280.798H269.997L272.811 273.462H273.702L276.526 280.798ZM274.515 277.969L273.364 274.843C273.326 274.741 273.289 274.577 273.251 274.352H273.231C273.197 274.56 273.158 274.724 273.113 274.843L271.972 277.969H274.515ZM280.363 280.921C279.323 280.921 278.489 280.578 277.861 279.893C277.237 279.207 276.925 278.315 276.925 277.217C276.925 276.037 277.244 275.095 277.882 274.393C278.519 273.69 279.387 273.339 280.486 273.339C281.499 273.339 282.314 273.68 282.931 274.362C283.552 275.044 283.862 275.936 283.862 277.038C283.862 278.235 283.545 279.182 282.911 279.877C282.276 280.573 281.427 280.921 280.363 280.921ZM280.424 274.117C279.653 274.117 279.028 274.395 278.547 274.95C278.066 275.506 277.825 276.236 277.825 277.14C277.825 278.044 278.059 278.772 278.526 279.325C278.997 279.874 279.609 280.149 280.363 280.149C281.168 280.149 281.802 279.886 282.266 279.361C282.73 278.835 282.962 278.1 282.962 277.156C282.962 276.187 282.737 275.438 282.287 274.91C281.836 274.381 281.216 274.117 280.424 274.117Z" fill="black"/>
            <circle cx="274.611" cy="254.493" r="3.21014" fill="white" stroke="black" stroke-width="1.07221"/>
            <circle cx="274.611" cy="243.376" r="1.75998" fill="white" stroke="black" stroke-width="1.07221"/>
            <circle cx="264.218" cy="249.176" r="2.48506" fill="white" stroke="black" stroke-width="1.07221"/>
            <circle cx="283.554" cy="245.188" r="2.00167" fill="white" stroke="black" stroke-width="1.07221"/>
            <circle cx="271.959" cy="263.251" r="1.14945" fill="white" stroke="black" stroke-width="1.07221"/>
            <circle cx="282.461" cy="253.527" r="1.53843" fill="white" stroke="black" stroke-width="1.07221"/>
            <circle cx="283.554" cy="262.348" r="1.75998" fill="white" stroke="black" stroke-width="1.07221"/>
            <path d="M266.635 250.626L271.469 253.043" stroke="black" stroke-width="1.07221"/>
            <path d="M274.611 245.43V250.928" stroke="black" stroke-width="1.07221"/>
            <path d="M277.028 252.077L281.922 247.001" stroke="black" stroke-width="1.07221"/>
            <path d="M278.176 254.191L281.318 253.829" stroke="black" stroke-width="1.07221"/>
            <path d="M277.209 256.91L281.922 260.898" stroke="black" stroke-width="1.07221"/>
            <path d="M272.194 262.469L273.403 257.877" stroke="black" stroke-width="1.07221"/>
        </g>
        <rect x="235.521" y="224.74" width="76.2511" height="76.2511" rx="2.33422" stroke="#5E36B7" stroke-width="1.55614"/>
    </g>
    <defs>
        <filter id="filter0_d_174_3108" x="682.543" y="150.655" width="234.914" height="216.914" filterUnits="userSpaceOnUse" color-interpolation-filters="sRGB">
            <feFlood flood-opacity="0" result="BackgroundImageFix"/>
            <feColorMatrix in="SourceAlpha" type="matrix" values="0 0 0 0 0 0 0 0 0 0 0 0 0 0 0 0 0 0 127 0" result="hardAlpha"/>
            <feOffset dy="3.11229"/>
            <feGaussianBlur stdDeviation="16.7286"/>
            <feComposite in2="hardAlpha" operator="out"/>
            <feColorMatrix type="matrix" values="0 0 0 0 0 0 0 0 0 0 0 0 0 0 0 0 0 0 0.25 0"/>
            <feBlend mode="normal" in2="BackgroundImageFix" result="effect1_dropShadow_174_3108"/>
            <feBlend mode="normal" in="SourceGraphic" in2="effect1_dropShadow_174_3108" result="shape"/>
        </filter>
        <filter id="filter1_d_174_3108" x="0.542885" y="195.173" width="174.288" height="131.494" filterUnits="userSpaceOnUse" color-interpolation-filters="sRGB">
            <feFlood flood-opacity="0" result="BackgroundImageFix"/>
            <feColorMatrix in="SourceAlpha" type="matrix" values="0 0 0 0 0 0 0 0 0 0 0 0 0 0 0 0 0 0 127 0" result="hardAlpha"/>
            <feOffset dy="3.11229"/>
            <feGaussianBlur stdDeviation="16.7286"/>
            <feComposite in2="hardAlpha" operator="out"/>
            <feColorMatrix type="matrix" values="0 0 0 0 0 0 0 0 0 0 0 0 0 0 0 0 0 0 0.25 0"/>
            <feBlend mode="normal" in2="BackgroundImageFix" result="effect1_dropShadow_174_3108"/>
            <feBlend mode="normal" in="SourceGraphic" in2="effect1_dropShadow_174_3108" result="shape"/>
        </filter>
        <filter id="filter2_d_174_3108" x="201.286" y="325.111" width="144.721" height="144.721" filterUnits="userSpaceOnUse" color-interpolation-filters="sRGB">
            <feFlood flood-opacity="0" result="BackgroundImageFix"/>
            <feColorMatrix in="SourceAlpha" type="matrix" values="0 0 0 0 0 0 0 0 0 0 0 0 0 0 0 0 0 0 127 0" result="hardAlpha"/>
            <feOffset dy="3.11229"/>
            <feGaussianBlur stdDeviation="16.7286"/>
            <feComposite in2="hardAlpha" operator="out"/>
            <feColorMatrix type="matrix" values="0 0 0 0 0 0 0 0 0 0 0 0 0 0 0 0 0 0 0.25 0"/>
            <feBlend mode="normal" in2="BackgroundImageFix" result="effect1_dropShadow_174_3108"/>
            <feBlend mode="normal" in="SourceGraphic" in2="effect1_dropShadow_174_3108" result="shape"/>
        </filter>
        <filter id="filter3_d_174_3108" x="201.286" y="0.655175" width="144.721" height="144.721" filterUnits="userSpaceOnUse" color-interpolation-filters="sRGB">
            <feFlood flood-opacity="0" result="BackgroundImageFix"/>
            <feColorMatrix in="SourceAlpha" type="matrix" values="0 0 0 0 0 0 0 0 0 0 0 0 0 0 0 0 0 0 127 0" result="hardAlpha"/>
            <feOffset dy="3.11229"/>
            <feGaussianBlur stdDeviation="16.7286"/>
            <feComposite in2="hardAlpha" operator="out"/>
            <feColorMatrix type="matrix" values="0 0 0 0 0 0 0 0 0 0 0 0 0 0 0 0 0 0 0.25 0"/>
            <feBlend mode="normal" in2="BackgroundImageFix" result="effect1_dropShadow_174_3108"/>
            <feBlend mode="normal" in="SourceGraphic" in2="effect1_dropShadow_174_3108" result="shape"/>
        </filter>
        <filter id="filter4_d_174_3108" x="201.286" y="97.1361" width="144.721" height="144.721" filterUnits="userSpaceOnUse" color-interpolation-filters="sRGB">
            <feFlood flood-opacity="0" result="BackgroundImageFix"/>
            <feColorMatrix in="SourceAlpha" type="matrix" values="0 0 0 0 0 0 0 0 0 0 0 0 0 0 0 0 0 0 127 0" result="hardAlpha"/>
            <feOffset dy="3.11229"/>
            <feGaussianBlur stdDeviation="16.7286"/>
            <feComposite in2="hardAlpha" operator="out"/>
            <feColorMatrix type="matrix" values="0 0 0 0 0 0 0 0 0 0 0 0 0 0 0 0 0 0 0.25 0"/>
            <feBlend mode="normal" in2="BackgroundImageFix" result="effect1_dropShadow_174_3108"/>
            <feBlend mode="normal" in="SourceGraphic" in2="effect1_dropShadow_174_3108" result="shape"/>
        </filter>
        <filter id="filter5_d_174_3108" x="201.286" y="193.617" width="144.721" height="144.721" filterUnits="userSpaceOnUse" color-interpolation-filters="sRGB">
            <feFlood flood-opacity="0" result="BackgroundImageFix"/>
            <feColorMatrix in="SourceAlpha" type="matrix" values="0 0 0 0 0 0 0 0 0 0 0 0 0 0 0 0 0 0 127 0" result="hardAlpha"/>
            <feOffset dy="3.11229"/>
            <feGaussianBlur stdDeviation="16.7286"/>
            <feComposite in2="hardAlpha" operator="out"/>
            <feColorMatrix type="matrix" values="0 0 0 0 0 0 0 0 0 0 0 0 0 0 0 0 0 0 0.25 0"/>
            <feBlend mode="normal" in2="BackgroundImageFix" result="effect1_dropShadow_174_3108"/>
            <feBlend mode="normal" in="SourceGraphic" in2="effect1_dropShadow_174_3108" result="shape"/>
        </filter>
        <clipPath id="clip0_174_3108">
            <rect x="716" y="181" width="168" height="150" rx="3.11229" fill="white"/>
        </clipPath>
        <clipPath id="clip1_174_3108">
            <rect width="38.4777" height="45.8191" fill="white" transform="translate(782.931 260.886)"/>
        </clipPath>
        <clipPath id="clip2_174_3108">
            <rect x="34" y="225.518" width="107.374" height="64.58" rx="3.11229" fill="white"/>
        </clipPath>
        <clipPath id="clip3_174_3108">
            <rect width="35.826" height="46.9926" fill="white" transform="translate(254.938 370.488)"/>
        </clipPath>
        <clipPath id="clip4_174_3108">
            <rect x="234.743" y="31" width="77.8073" height="77.8073" rx="3.11229" fill="white"/>
        </clipPath>
        <clipPath id="clip5_174_3108">
            <rect x="234.743" y="127.481" width="77.8073" height="77.8073" rx="3.11229" fill="white"/>
        </clipPath>
        <clipPath id="clip6_174_3108">
            <rect x="234.743" y="223.962" width="77.8073" height="77.8073" rx="3.11229" fill="white"/>
        </clipPath>
    </defs>
</svg>
