<svg width="26" height="21" viewBox="0 0 26 21" fill="none" xmlns="http://www.w3.org/2000/svg">
<path d="M22.0245 2.07578C20.3414 1.29572 18.5419 0.728811 16.6605 0.406006C16.4294 0.81983 16.1595 1.37643 15.9734 1.81921C13.9734 1.52126 11.9918 1.52126 10.0286 1.81921C9.84251 1.37643 9.56643 0.81983 9.33331 0.406006C7.44987 0.728811 5.64824 1.29781 3.96521 2.07991C0.570529 7.16157 -0.349712 12.117 0.11041 17.0021C2.36194 18.6677 4.54394 19.6795 6.68912 20.3416C7.21878 19.6195 7.69116 18.8518 8.09811 18.0428C7.32306 17.7511 6.58074 17.3911 5.87933 16.9731C6.06541 16.8366 6.24743 16.6938 6.42328 16.5469C10.7014 18.5291 15.3496 18.5291 19.5766 16.5469C19.7546 16.6938 19.9365 16.8366 20.1206 16.9731C19.4171 17.3931 18.6727 17.7532 17.8977 18.0449C18.3046 18.8518 18.775 19.6216 19.3067 20.3436C21.4539 19.6815 23.638 18.6698 25.8895 17.0021C26.4294 11.339 24.9672 6.42911 22.0245 2.07578ZM8.68094 13.9978C7.3967 13.9978 6.34351 12.8101 6.34351 11.3639C6.34351 9.91757 7.37421 8.72786 8.68094 8.72786C9.98771 8.72786 11.0409 9.91549 11.0184 11.3639C11.0204 12.8101 9.98771 13.9978 8.68094 13.9978ZM17.319 13.9978C16.0347 13.9978 14.9815 12.8101 14.9815 11.3639C14.9815 9.91757 16.0122 8.72786 17.319 8.72786C18.6257 8.72786 19.6789 9.91549 19.6564 11.3639C19.6564 12.8101 18.6257 13.9978 17.319 13.9978Z" fill="currentColor"/>
</svg>
